<svg xmlns="http://www.w3.org/2000/svg" version="1.1" xmlns:xlink="http://www.w3.org/1999/xlink" x="0" y="0" viewBox="0 0 64 64" style="enable-background:new 0 0 512 512" xml:space="preserve"><g><path d="M42.55 6.75H37.4a1 1 0 0 0 0 2h5.15a.831.831 0 0 1 .83.83v47.59a.831.831 0 0 1-.83.83H9.6a.83.83 0 0 1-.83-.83V9.58a.83.83 0 0 1 .83-.83h5.15a1 1 0 0 0 0-2H9.6a2.833 2.833 0 0 0-2.83 2.83v47.59A2.833 2.833 0 0 0 9.6 60h32.95a2.833 2.833 0 0 0 2.83-2.83V9.58a2.833 2.833 0 0 0-2.83-2.83Z" fill="currentColor" opacity="1" data-original="#000000"/><path d="M19.754 11.491h12.644a2.002 2.002 0 0 0 2-2V6a2.002 2.002 0 0 0-2-2H19.754a2.002 2.002 0 0 0-2 2v3.491a2.002 2.002 0 0 0 2 2Zm0-5.491h12.644l.002 3.491H19.754ZM13.37 23.293a1 1 0 0 0 0 1.414l2.5 2.5a1 1 0 0 0 1.414 0l5-5a1 1 0 0 0-1.414-1.414l-4.293 4.293-1.793-1.793a1 1 0 0 0-1.414 0ZM38.077 23h-12a1 1 0 0 0 0 2h12a1 1 0 0 0 0-2ZM17.284 39.207l5-5a1 1 0 0 0-1.414-1.414l-4.293 4.293-1.793-1.793a1 1 0 0 0-1.414 1.414l2.5 2.5a1 1 0 0 0 1.414 0ZM38.077 35h-12a1 1 0 0 0 0 2h12a1 1 0 0 0 0-2ZM13.37 48.707l2.5 2.5a1 1 0 0 0 1.414 0l5-5a1 1 0 0 0-1.414-1.414l-4.293 4.293-1.793-1.793a1 1 0 0 0-1.414 1.414ZM26.077 47a1 1 0 0 0 0 2h12a1 1 0 0 0 0-2ZM53.074 11a4.155 4.155 0 0 0-4.15 4.15V44a1.001 1.001 0 0 0 .08.39l3.142 7.976a1 1 0 0 0 1.86 0l3.144-7.975a1.002 1.002 0 0 0 .08-.391V15.15A4.156 4.156 0 0 0 53.073 11Zm.003 38.272L51.393 45h3.368ZM55.229 43h-4.305V19h4.305Zm0-26h-4.305v-1.85a2.153 2.153 0 0 1 4.305 0Z" fill="currentColor" opacity="1" data-original="#000000"/></g></svg>