<svg xmlns="http://www.w3.org/2000/svg" xmlns:xlink="http://www.w3.org/1999/xlink" viewBox="0 0 209.67 94.71"><defs><style>.cls-1,.cls-3{fill:#fff;}.cls-2{clip-path:url(#clip-path);}.cls-3{font-size:7.6px;font-family:BlairMdITCTTMedium, BlairMdITC TT;}.cls-4{letter-spacing:-0.05em;}.cls-5{letter-spacing:0em;}</style><clipPath id="clip-path"><path class="cls-1" d="M38.06,9.08l7.49,15.43h6.63c2.74,0,2.65-.28,3.46,2.18S70.16,71.46,70.16,71.46A10.82,10.82,0,0,0,80,77.14h62.59V61H97.4S88,62.18,84.88,53.94C83.83,51.2,72.26,17,72.26,17s-2.91-7.93-9.8-7.93Z"/></clipPath></defs><title>Asset 2</title><g id="Layer_2" data-name="Layer 2"><g id="Layer_1-2" data-name="Layer 1"><path class="cls-1" d="M38.06,9.08l7.49,15.43h6.63c2.74,0,2.65-.28,3.46,2.18S70.16,71.46,70.16,71.46A10.82,10.82,0,0,0,80,77.14h62.59V61H97.4S88,62.18,84.88,53.94C83.83,51.2,72.26,17,72.26,17s-2.91-7.93-9.8-7.93Z"/><g class="cls-2"><rect class="cls-1" x="35.29" y="4.65" width="110.1" height="76.91" transform="translate(-3.41 8.04) rotate(-5)"/></g><text class="cls-3" transform="translate(178.58 77.89) scale(0.88 1)">DM<tspan class="cls-4" x="17.49" y="0">C</tspan><tspan class="cls-5" x="25.03" y="0">C</tspan></text><path class="cls-1" d="M73,12.22h0s2.47-3.65,11.67-3.38c1.39,0,125,0,125,0V25.41h-34v52H155.61v-52l-60,0a10.8,10.8,0,0,0-9.7,5.85c-.93,1.76-3.58,8.14-3.58,8.14Z"/><path class="cls-1" d="M42.7,24.38H39.1a2.66,2.66,0,0,0-2.28,1.49c-.9,1.87-15.69,50.29-15.69,50.29a2.12,2.12,0,0,1-2,1.23H0L22.62,9.9s.32-1.07,2.53-1.07H35.22Z"/><path class="cls-1" d="M54.46,51.72c0,3.85-3.77,7-8.43,7s-8.44-3.11-8.44-7,3.78-7,8.44-7,8.43,3.12,8.43,7"/><rect class="cls-1" x="0.16" y="86.39" width="2.03" height="8.32"/><path class="cls-1" d="M16.92,94.28,6.8,87.65H6.48v7.07h-2V87.28c0-.48.65-.89,1.46-.89H6.8a2.7,2.7,0,0,1,1.49.43l10.15,6.63h.31V86.39h2V93.8c0,.5-.63.91-1.44.91h-.9a2.71,2.71,0,0,1-1.5-.43"/><polygon class="cls-1" points="30.18 87.64 23.03 87.64 23.03 86.39 39.35 86.39 39.35 87.64 32.21 87.64 32.21 94.71 30.18 94.71 30.18 87.64"/><path class="cls-1" d="M41.61,92.69V88.41c0-1.13,1.44-2,3.25-2H57.49v1.25H44.86c-.68,0-1.23.35-1.23.77v1.51H57.49v1.26H43.63v1.51c0,.42.55.76,1.23.76H57.49v1.26H44.86c-1.81,0-3.25-.9-3.25-2"/><path class="cls-1" d="M74.06,91.94c0-.42-.54-.76-1.22-.76H62.66V89.92H72.84c.68,0,1.22-.34,1.22-.76V88.4c0-.41-.54-.76-1.22-.76H61.78v7.07h-2V86.39H72.84c1.79,0,3.23.9,3.23,2v.76a1.71,1.71,0,0,1-.88,1.39,1.71,1.71,0,0,1,.88,1.39v2.77h-2Z"/><path class="cls-1" d="M90.8,94.28,80.68,87.65h-.32v7.07h-2V87.28c0-.48.66-.89,1.47-.89h.88a2.76,2.76,0,0,1,1.5.43l10.14,6.63h.32V86.39h2V93.8c0,.5-.63.91-1.44.91H92.3a2.76,2.76,0,0,1-1.5-.43"/><path class="cls-1" d="M111.22,91.18H98.94v3.53h-2v-6.3c0-1.13,1.45-2,3.26-2H110c1.78,0,3.23.89,3.23,2v6.3h-2Zm0-2.77c0-.42-.54-.77-1.22-.77h-9.83c-.68,0-1.23.35-1.23.77v1.51h12.28Z"/><polygon class="cls-1" points="122.64 87.64 115.49 87.64 115.49 86.39 131.81 86.39 131.81 87.64 124.68 87.64 124.68 94.71 122.64 94.71 122.64 87.64"/><rect class="cls-1" x="134.07" y="86.39" width="2.03" height="8.32"/><path class="cls-1" d="M138.35,92.69V88.41c0-1.13,1.45-2,3.25-2h9.84c1.79,0,3.23.89,3.23,2v4.28c0,1.12-1.44,2-3.23,2H141.6c-1.8,0-3.25-.9-3.25-2m2-4.28v4.28c0,.42.55.76,1.22.76h9.84c.68,0,1.22-.34,1.22-.76V88.41c0-.42-.54-.77-1.22-.77H141.6c-.67,0-1.22.35-1.22.77"/><path class="cls-1" d="M169.4,94.28l-10.12-6.63H159v7.07h-2V87.28c0-.48.66-.89,1.47-.89h.88a2.71,2.71,0,0,1,1.5.43l10.14,6.63h.32V86.39h2V93.8c0,.5-.64.91-1.44.91h-.91a2.76,2.76,0,0,1-1.5-.43"/><path class="cls-1" d="M189.82,91.18H177.55v3.53h-2v-6.3c0-1.13,1.45-2,3.25-2h9.84c1.79,0,3.23.89,3.23,2v6.3h-2Zm0-2.77c0-.42-.54-.77-1.22-.77h-9.84c-.67,0-1.21.35-1.21.77v1.51h12.27Z"/><path class="cls-1" d="M194.09,92.69v-6.3h2v6.3c0,.42.55.76,1.22.76h11.75v1.26H197.34c-1.8,0-3.25-.9-3.25-2"/></g></g></svg>