<?xml version="1.0" encoding="UTF-8"?>
<svg id="Layer_2" data-name="Layer 2" xmlns="http://www.w3.org/2000/svg" xmlns:xlink="http://www.w3.org/1999/xlink" viewBox="0 0 209.67 85.88">
  <defs>
    <style>
      .cls-1 {
        opacity: .2;
      }

      .cls-2 {
        clip-path: url(#clippath);
      }

      .cls-3 {
        fill: none;
      }

      .cls-4 {
        fill: url(#linear-gradient);
      }

      .cls-5 {
        fill: #231f20;
      }
    </style>
    <clipPath id="clippath">
      <path class="cls-3" d="M38.06,.25l7.49,15.43h6.63c2.73,0,2.64-.28,3.45,2.18,.8,2.43,14.52,44.78,14.52,44.78,0,0,2.59,5.67,9.88,5.67h62.58v-16.14h-45.23s-9.37,1.18-12.52-7.06c-1.04-2.73-12.61-36.92-12.61-36.92,0,0-2.91-7.94-9.81-7.94h-24.4Z"/>
    </clipPath>
    <linearGradient id="linear-gradient" x1="-620.4" y1="110.15" x2="-617.44" y2="110.15" gradientTransform="translate(2952.66 -16049.22) rotate(-90) scale(25.99 -25.99)" gradientUnits="userSpaceOnUse">
      <stop offset="0" stop-color="#0a2317"/>
      <stop offset=".1" stop-color="#0d281b"/>
      <stop offset=".23" stop-color="#173829"/>
      <stop offset=".38" stop-color="#285340"/>
      <stop offset=".45" stop-color="#32634e"/>
      <stop offset=".99" stop-color="#267052"/>
      <stop offset="1" stop-color="#267052"/>
    </linearGradient>
  </defs>
  <g id="Layer_1-2" data-name="Layer 1">
    <g class="cls-1">
      <g class="cls-2">
        <rect class="cls-4" x="35.29" y="-4.17" width="110.1" height="76.91" transform="translate(-2.64 8) rotate(-5)"/>
      </g>
      <path class="cls-5" d="M73,3.4h0S75.47-.25,84.67,.01C86.06,.06,209.67,.01,209.67,.01V16.58h-34v51.98h-20.06V16.54l-60-.04s-6.42-.38-9.7,5.85c-.92,1.76-3.58,8.14-3.58,8.14L73,3.4Z"/>
      <path class="cls-5" d="M42.7,15.55h-3.6s-1.56,0-2.28,1.49c-.89,1.87-15.68,50.29-15.68,50.29,0,0-.47,1.23-2.03,1.23H0L22.62,1.07s.33-1.07,2.54-1.07h10.06l7.49,15.55Z"/>
      <path class="cls-5" d="M54.46,42.89c0,3.85-3.78,6.97-8.44,6.97s-8.43-3.12-8.43-6.97,3.77-6.96,8.43-6.96,8.44,3.12,8.44,6.96"/>
      <rect class="cls-5" x=".16" y="77.56" width="2.03" height="8.32"/>
      <path class="cls-5" d="M16.92,85.46l-10.12-6.63s-.02,0-.04-.01h-.28v7.07h-2.03v-7.43c0-.49,.65-.9,1.46-.9h.89c.54,0,1.14,.17,1.49,.43l10.15,6.63h.32v-7.06h2.01v7.41c0,.5-.64,.91-1.44,.91h-.9c-.55,0-1.15-.17-1.5-.43"/>
      <polygon class="cls-5" points="30.18 78.81 23.03 78.81 23.03 77.56 39.35 77.56 39.35 78.81 32.21 78.81 32.21 85.88 30.18 85.88 30.18 78.81"/>
      <path class="cls-5" d="M41.61,83.87v-4.29c0-1.12,1.44-2.02,3.25-2.02h12.63v1.25h-12.63c-.68,0-1.23,.35-1.23,.77v1.51h13.86v1.26h-13.86v1.51c0,.42,.55,.76,1.23,.76h12.63v1.26h-12.63c-1.8,0-3.25-.9-3.25-2.02"/>
      <path class="cls-5" d="M74.06,83.11c0-.42-.55-.76-1.23-.76h-10.18v-1.26h10.18c.68,0,1.23-.34,1.23-.76v-.76c0-.42-.55-.77-1.23-.77h-11.06v7.07h-2.03v-8.32h13.09c1.79,0,3.23,.9,3.23,2.02v.76c0,.53-.33,1.02-.88,1.38,.55,.38,.88,.87,.88,1.39v2.77h-2.01v-2.77Z"/>
      <path class="cls-5" d="M90.8,85.46l-10.12-6.63s-.02,0-.04-.01h-.28v7.07h-2.03v-7.43c0-.49,.65-.9,1.46-.9h.88c.54,0,1.14,.17,1.5,.43l10.14,6.63h.32v-7.06h2.01v7.41c0,.5-.63,.91-1.44,.91h-.9c-.55,0-1.14-.17-1.5-.43"/>
      <path class="cls-5" d="M111.22,82.35h-12.28v3.53h-2.03v-6.3c0-1.12,1.44-2.02,3.25-2.02h9.84c1.78,0,3.23,.89,3.23,2.02v6.3h-2.01v-3.53Zm0-2.77c0-.42-.55-.77-1.22-.77h-9.84c-.68,0-1.22,.35-1.22,.77v1.51h12.28v-1.51Z"/>
      <polygon class="cls-5" points="122.65 78.81 115.49 78.81 115.49 77.56 131.81 77.56 131.81 78.81 124.68 78.81 124.68 85.88 122.65 85.88 122.65 78.81"/>
      <rect class="cls-5" x="134.07" y="77.56" width="2.03" height="8.32"/>
      <path class="cls-5" d="M138.35,83.87v-4.29c0-1.12,1.45-2.02,3.25-2.02h9.83c1.79,0,3.23,.89,3.23,2.02v4.29c0,1.12-1.44,2.02-3.23,2.02h-9.83c-1.81,0-3.25-.9-3.25-2.02m2.03-4.29v4.29c0,.42,.55,.76,1.22,.76h9.83c.68,0,1.22-.34,1.22-.76v-4.29c0-.42-.54-.77-1.22-.77h-9.83c-.68,0-1.22,.35-1.22,.77"/>
      <path class="cls-5" d="M169.4,85.46l-10.12-6.63s-.02,0-.04-.01h-.28v7.07h-2.03v-7.43c0-.49,.66-.9,1.46-.9h.89c.55,0,1.15,.17,1.5,.43l10.14,6.63h.32v-7.06h2.01v7.41c0,.5-.64,.91-1.45,.91h-.9c-.54,0-1.14-.17-1.5-.43"/>
      <path class="cls-5" d="M189.82,82.35h-12.27v3.53h-2.03v-6.3c0-1.12,1.44-2.02,3.25-2.02h9.84c1.78,0,3.23,.89,3.23,2.02v6.3h-2.01v-3.53Zm0-2.77c0-.42-.54-.77-1.22-.77h-9.84c-.67,0-1.22,.35-1.22,.77v1.51h12.27v-1.51Z"/>
      <path class="cls-5" d="M194.09,83.87v-6.3h2.03v6.3c0,.42,.55,.76,1.22,.76h11.75v1.26h-11.75c-1.8,0-3.25-.9-3.25-2.02"/>
    </g>
  </g>
</svg>