<svg xmlns="http://www.w3.org/2000/svg" version="1.1" xmlns:xlink="http://www.w3.org/1999/xlink" xmlns:svgjs="http://svgjs.com/svgjs" x="0" y="0" viewBox="0 0 512 512" style="enable-background:new 0 0 512 512" xml:space="preserve" class=""><g><path d="m462.071 273.328-27.79-56.338a5.003 5.003 0 0 0-2.954-2.548l-28.662-9.216.02-.068a5 5 0 0 0-3.333-6.07c-5.053-1.583-9.909-2.805-14.561-3.664 10.548-7.443 18.191-19.168 22.236-34.209a5 5 0 0 0-3.333-6.07c-5.125-1.606-10.049-2.839-14.764-3.7 9.733-6.929 16.788-17.79 20.527-31.69a5 5 0 0 0-3.333-6.07 124.03 124.03 0 0 0-10.647-2.847c6.596-4.668 12.003-11.626 15.79-20.701a5 5 0 0 0-2.502-6.457c-1.561-.728-3.096-1.4-4.609-2.02 8.326-4.383 15.089-12.059 19.549-22.727a4.999 4.999 0 0 0-2.498-6.459c-6.909-3.226-13.314-5.357-19.287-6.403 6.743-6.441 11.733-17.099 6.545-36.371a5 5 0 0 0-5.93-3.577c-23.838 5.383-32.848 15.671-37.18 26.22-4.919-7.326-12.744-13.816-23.606-19.623a5 5 0 0 0-6.667 1.875c-6.493 11.036-8.356 22.127-5.866 32.235-3.94-2.126-8.335-4.07-13.193-5.839a5 5 0 0 0-6.335 2.797c-5.109 12.427-5.646 24.225-2.012 34.483a128.452 128.452 0 0 0-7.254-3.315 4.997 4.997 0 0 0-6.466 2.479c-9.935 21.121-6.558 37.188-.65 48.004-5.132-2.041-10.734-3.768-17.056-5.26a5.003 5.003 0 0 0-5.964 3.52 82.979 82.979 0 0 0-.859 3.372c-2.28-29.38-7.582-56.274-15.381-77.35C243.462 21.118 229.553 6 213.823 6c-15.13 0-28.649 14.095-39.096 40.762-8.872 22.646-14.799 52.921-16.909 85.961-14.357-7.791-31.68-12.663-52.185-14.717a5 5 0 0 0-4.035 8.51c19.361 19.361 29.265 44.845 35.031 69.931L80.67 214.44a5.003 5.003 0 0 0-2.954 2.548l-27.788 56.338a4.996 4.996 0 0 0 2.46 6.784l24.814 10.987v128.786a5.001 5.001 0 0 0 2.885 4.531l173.797 81.116a4.997 4.997 0 0 0 4.23 0l173.798-81.116a5 5 0 0 0 2.885-4.531V291.097l24.813-10.987a5 5 0 0 0 2.46-6.784zm-47.313-53.71-23.161 8.888c3.087-4.062 5.719-8.678 7.851-13.811zM301.087 86.194c15.837 7.436 25.569 16.434 29.69 27.418a5 5 0 0 0 4.681 3.244h.054a5 5 0 0 0 4.665-3.343 342.369 342.369 0 0 1 3.582-9.733 5 5 0 0 0-2.742-6.414c-21.446-8.938-29.915-25.231-23.748-45.152 15.795 6.63 24.756 15.43 27.34 26.809a5.001 5.001 0 0 0 9.381 1.062 300.322 300.322 0 0 1 3.982-7.969 5 5 0 0 0-1.824-6.563c-16.907-10.373-22.117-25.317-14.729-41.515 11.847 7.195 18.367 15.234 19.886 24.479a5 5 0 0 0 4.794 4.188c2.384.052 4.501-1.575 5.02-3.914l.242-1.092c2.719-12.333 5.295-24.024 28.542-30.594 3.437 18.789-6.455 23.831-14.521 27.943-1.714.874-3.333 1.699-4.699 2.614a5 5 0 0 0 4.279 8.925c7.563-2.374 16.558-1.415 27.389 2.939-8.532 15.623-23.613 20.416-42.049 13.109a4.998 4.998 0 0 0-6.28 2.344 293.065 293.065 0 0 0-4.088 8.186 4.999 4.999 0 0 0 6.914 6.547c8.67-4.76 19.524-4.432 33.075 1.026-8.824 16.322-24.516 21.264-43.727 13.516a4.998 4.998 0 0 0-6.541 2.853 343.353 343.353 0 0 0-5.359 15.095 5 5 0 0 0 8.008 5.356c10.791-9.269 25.889-11.155 46.058-5.721-3.773 10.784-9.883 18.63-18.207 23.364-10.132 5.762-23.25 6.629-37.935 2.505a5.001 5.001 0 0 0-6.21 3.636 427.201 427.201 0 0 0-4.05 18.533 4.999 4.999 0 0 0 8.713 4.202c12.016-14.103 30.127-17.649 55.277-10.785-4.124 12.041-10.891 20.779-20.16 26.012-11.187 6.315-25.649 7.194-41.824 2.541a5 5 0 0 0-6.335 4.123 526.161 526.161 0 0 0-2.492 21.386 5 5 0 0 0 9.013 3.429c11.963-16.368 30.789-20.82 57.455-13.547-4.12 12.028-10.877 20.761-20.132 25.996-11.157 6.312-25.581 7.209-41.712 2.598a4.996 4.996 0 0 0-4.285.742 4.994 4.994 0 0 0-2.083 3.817l-.659 13.232a4.97 4.97 0 0 0 .102 1.275l-42.801 16.425c.963-6.88 1.818-13.995 2.703-21.414.54-4.532 1.09-9.13 1.677-13.765 10.039 4.153 17.388 10.539 22.344 19.418a4.999 4.999 0 0 0 9.363-2.264c.181-5.185.426-10.395.729-15.486a5 5 0 0 0-4.552-5.277c-10.235-.903-19.084-3.477-26.375-7.645 1.623-11.342 3.63-22.783 6.453-33.963 8.089 4.166 13.925 9.895 17.739 17.41a4.998 4.998 0 0 0 5.343 2.658 5 5 0 0 0 4.083-4.352c.53-4.626 1.123-9.25 1.761-13.746a5 5 0 0 0-3.694-5.542c-8.325-2.161-15.534-5.341-21.495-9.458 3.468-10.697 7.898-20.997 13.703-30.561 3.548 3.551 6.315 7.55 8.224 11.946a4.999 4.999 0 0 0 9.468-.916 421.045 421.045 0 0 1 2.438-10.431 5 5 0 0 0-2.772-5.747c-3.622-1.658-6.968-3.528-9.998-5.577a106.648 106.648 0 0 1 8.872-10.091 5 5 0 0 0-4.371-8.466c-6.436 1.091-12.591 2.601-18.472 4.511-6.519-10.488-7.237-22.94-2.118-36.371zm36.759 116.914c-.397.283-.791.572-1.18.868l.137-1.093c.349.077.696.152 1.043.225zM256 280.544l-32.771-12.576c7.652-75.747 36.31-121.614 85.318-136.578-25.79 33.848-31.044 77.934-35.739 117.333-1.117 9.378-2.192 18.263-3.491 26.71zm-30.587-73.501h-6.589V191.04h12.715a188.128 188.128 0 0 0-6.125 16.003zm-3.063 10a248.178 248.178 0 0 0-3.526 14.199v-14.199zm13.979-36.003h-17.506v-16.002h19.203c.042 4.147.07 8.376.084 12.686a152.997 152.997 0 0 0-1.781 3.316zm-46.586-26.002c.087-5.489.203-10.816.344-16.002h18.736v16.002zm42.196-94.01a445.608 445.608 0 0 1 1.919 16.002h-15.035V61.028zm-13.116-10V35.026h8.292c1.191 4.833 2.283 10.17 3.279 16.002h-11.57zm15.972 36.002c.434 5.102.824 10.439 1.173 16.002h-17.144V87.03h15.972zm1.737 26.002c.264 5.157.498 10.48.696 16.003h-18.405v-16.003zm-27.709-10H191.65c.347-5.565.737-10.899 1.171-16.002h16.002zm0 10v16.003h-18.425c.195-5.517.424-10.851.686-16.003zm10 26.003h18.718c.144 5.186.262 10.514.352 16.002h-19.07zm35.061 16.002H247.9c-.087-5.492-.203-10.817-.342-16.002h12.61c.148 2.987.266 5.995.35 9.024a114.128 114.128 0 0 0-6.634 6.979zm-6.634-26.002a1064.36 1064.36 0 0 0-.675-16.003h11.447a380.821 380.821 0 0 1 1.534 16.003h-12.307zm-1.231-26.003a731.534 731.534 0 0 0-1.152-16.002h9.091a313.462 313.462 0 0 1 2.76 16.002zM243.95 77.03a461.174 461.174 0 0 0-1.877-16.002h5.267c1.613 5.058 3.09 10.404 4.428 16.002zm-3.376-26.002a262.64 262.64 0 0 0-2.403-12.685c1.975 3.794 3.876 8.027 5.678 12.685zm-16.287-26.002h-5.464v-8.079c1.013.378 2.024.868 3.034 1.467a93.913 93.913 0 0 1 2.43 6.612zm-15.464 0h-5.463a95.66 95.66 0 0 1 2.414-6.581 18.954 18.954 0 0 1 3.048-1.488v8.069zm0 10v16.002h-11.6c.999-5.834 2.098-11.162 3.296-16.002zm0 26.002V77.03h-15.067c.58-5.65 1.22-10.981 1.922-16.002zM183.665 77.03h-7.782c1.338-5.606 2.813-10.955 4.42-16.002h5.239a458.745 458.745 0 0 0-1.877 16.002zm-.915 10a726.067 726.067 0 0 0-1.145 16.002h-10.67a314.539 314.539 0 0 1 2.759-16.002h9.057zm-1.697 26.002c-.256 5.157-.483 10.479-.674 16.003h-12.288c.406-5.434.925-10.77 1.538-16.003zm-.975 26.003c-.089 3.35-.169 6.75-.237 10.228a89.92 89.92 0 0 0-11.927-10.228h12.163zm28.744 26.002v16.002H200.5c-2.344-5.52-5.071-10.873-8.285-16.002zm0 26.002v15.704c-1.3-5.312-2.784-10.56-4.525-15.704zm72.971-59.021a106.81 106.81 0 0 0-3.582 2.155c.159-1.004.335-2.015.547-3.036 1.036.285 2.043.58 3.035.881zm-92.345-93.607a260.092 260.092 0 0 0-2.403 12.615h-3.238c.078-.202.152-.415.23-.615 1.718-4.386 3.53-8.39 5.41-12zm16.388 206.053c.983 5.997 1.944 11.767 2.987 17.405v.569l-54.868-21.056c-4.071-33.786-9.816-78.129-36.138-111.617 71.288 12.629 79.783 64.471 88.019 114.699zm-62.448-7.136L97.24 219.619l41.456-13.329c2.063 10.757 3.488 21.279 4.692 31.039zm-58.721-11.823 164.057 62.958-31.289 53.791-156.232-69.176 23.465-47.574zm2.535 70.022 130.278 57.684a5 5 0 0 0 6.346-2.057l27.172-46.713v188.71L87.201 416.702V295.528zm337.595 121.174L260.999 493.15V304.439l27.173 46.714a5 5 0 0 0 6.346 2.057l130.279-57.684V416.7zm-130.233-74.447-31.289-53.792 164.055-62.958 23.467 47.574-156.232 69.175z" fill="currentColor" data-original="#000000" class=""/></g></svg>