<svg width="351" height="99" viewBox="0 0 351 99" fill="none" xmlns="http://www.w3.org/2000/svg">
<g opacity="0.2" clip-path="url(#clip0_101_400)">
<path d="M90.96 82.8302V73.4102H87.79V71.9302H95.86V73.4102H92.68V82.8302H90.96Z" fill="#B3B3B3"/>
<mask id="mask0_101_400" style="mask-type:luminance" maskUnits="userSpaceOnUse" x="-250" y="-243" width="842" height="596">
<path d="M591.89 -243H-250V352.28H591.89V-243Z" fill="white"/>
</mask>
<g mask="url(#mask0_101_400)">
<path d="M107.83 82.8302C107.582 82.547 107.416 82.2011 107.35 81.8302L106.91 79.9402C106.59 78.6702 105.91 78.4302 104.91 78.4302H103.45V82.8502H101.75V71.9302H105.52C108.02 71.9302 109.24 72.9302 109.24 75.0402C109.263 75.3856 109.215 75.7321 109.099 76.0583C108.983 76.3845 108.802 76.6834 108.565 76.9364C108.329 77.1895 108.043 77.3915 107.726 77.5297C107.409 77.668 107.066 77.7396 106.72 77.7402V77.8002C107.189 77.8221 107.636 78.0085 107.981 78.3266C108.327 78.6447 108.549 79.0744 108.61 79.5402L109.17 81.6802C109.275 82.1001 109.469 82.4925 109.74 82.8302H107.83ZM103.41 77.0002H105.41C106.78 77.0002 107.41 76.4302 107.41 75.1902C107.41 73.9502 106.76 73.3702 105.41 73.3702H103.41V77.0002Z" fill="#B3B3B3"/>
<path d="M121.929 79.8502H117.469L116.469 82.8502H114.699L118.699 71.9502H120.939L124.879 82.8502H122.999L121.929 79.8502ZM117.929 78.4402H121.409L120.599 76.0002C120.255 75.0627 119.971 74.1041 119.749 73.1302H119.669C119.434 74.0939 119.15 75.0451 118.819 75.9802L117.929 78.4402Z" fill="#B3B3B3"/>
<path d="M130.659 82.8302V71.9302H134.049C137.049 71.9302 139.309 73.4302 139.309 77.2602C139.309 81.2602 136.899 82.8302 133.989 82.8302H130.659ZM133.829 81.4102C135.969 81.4102 137.509 80.2602 137.509 77.3302C137.509 74.4002 135.919 73.3302 133.989 73.3302H132.359V81.3902L133.829 81.4102Z" fill="#B3B3B3"/>
<path d="M152.499 82.8302H145.779V71.9302H152.499V73.4102H147.479V76.6302H151.919V78.1102H147.479V81.3502H152.499V82.8302Z" fill="#B3B3B3"/>
<path d="M174.63 83.07L173.28 81.65C172.799 82.1141 172.23 82.4771 171.607 82.7175C170.983 82.958 170.318 83.071 169.65 83.05C167.65 83.05 166.17 82.16 166.17 80.15C166.172 79.4232 166.417 78.718 166.866 78.147C167.316 77.576 167.944 77.1722 168.65 77L168.17 76.5C167.863 76.2077 167.616 75.8576 167.444 75.4697C167.273 75.0819 167.18 74.664 167.17 74.24C167.17 72.67 168.39 71.73 170.17 71.73C171.95 71.73 173.17 72.73 173.17 74.23C173.17 75.54 172.49 76.43 170.99 77.04L173.36 79.46C173.634 78.8286 173.777 78.1482 173.78 77.46L175.25 77.87C175.167 78.8051 174.869 79.7085 174.38 80.51L175.81 82L174.63 83.07ZM169.76 81.78C170.243 81.8011 170.724 81.7173 171.171 81.5343C171.618 81.3513 172.021 81.0735 172.35 80.72L169.44 77.78C168.964 77.9208 168.549 78.2149 168.258 78.6163C167.966 79.0178 167.816 79.5042 167.83 80C167.833 80.244 167.887 80.4847 167.987 80.707C168.088 80.9293 168.233 81.1284 168.415 81.2918C168.596 81.4552 168.809 81.5794 169.04 81.6565C169.272 81.7336 169.517 81.7621 169.76 81.74M168.76 74.11C168.779 74.3925 168.857 74.668 168.988 74.9192C169.119 75.1704 169.3 75.3919 169.52 75.57L170.15 76.22C170.566 76.0826 170.925 75.8125 171.172 75.4512C171.42 75.0899 171.542 74.6574 171.52 74.22C171.527 74.0388 171.499 73.8579 171.436 73.6877C171.373 73.5175 171.278 73.3613 171.155 73.2281C171.032 73.0948 170.884 72.9871 170.719 72.9111C170.554 72.835 170.376 72.7922 170.195 72.785C170.014 72.7778 169.833 72.8063 169.663 72.869C169.492 72.9317 169.336 73.0272 169.203 73.1503C168.934 73.3988 168.775 73.744 168.76 74.11Z" fill="#B3B3B3"/>
<path d="M191.55 71.9302H189.85V82.8302H191.55V71.9302Z" fill="#B3B3B3"/>
<path d="M204.79 78.1702C205.43 79.1702 206.03 80.2402 206.03 80.2402H206.1C206.1 80.2402 206 79.0702 206 77.7002V71.9302H207.7V82.8302H206L201.65 76.6102C201.186 75.9342 200.765 75.2294 200.39 74.5002H200.31C200.31 74.5002 200.42 75.6702 200.42 77.0702V82.8302H198.72V71.9302H200.46L204.79 78.1702Z" fill="#B3B3B3"/>
<path d="M217.569 78.8302C217.863 79.7339 218.096 80.6559 218.269 81.5902H218.349C218.501 80.6626 218.718 79.7469 218.999 78.8502L221.179 71.9302H222.999L219.389 82.8302H217.149L213.569 71.9302H215.409L217.569 78.8302Z" fill="#B3B3B3"/>
<path d="M235.539 82.8302H228.819V71.9302H235.539V73.4102H230.519V76.6302H234.969V78.1102H230.519V81.3502H235.539V82.8302Z" fill="#B3B3B3"/>
<path d="M242.699 79.7999C242.722 80.0787 242.799 80.3502 242.927 80.5989C243.056 80.8475 243.232 81.0684 243.445 81.2487C243.659 81.429 243.906 81.5653 244.173 81.6496C244.44 81.7339 244.721 81.7646 244.999 81.7399C246.169 81.7399 246.999 81.1999 246.999 80.1799C246.999 79.1599 246.519 78.7599 244.749 78.0899C242.979 77.4199 241.559 76.7999 241.559 74.7799C241.559 72.4999 243.339 71.6899 245.039 71.6899C247.039 71.6899 248.559 72.4699 248.739 74.5599L247.059 74.8899C247.054 74.6364 246.998 74.3865 246.894 74.1554C246.789 73.9244 246.639 73.7169 246.452 73.5458C246.265 73.3746 246.045 73.2433 245.805 73.1597C245.566 73.0762 245.312 73.0423 245.059 73.0599C244.837 73.0312 244.612 73.0506 244.398 73.1167C244.184 73.1827 243.987 73.294 243.821 73.4429C243.654 73.5918 243.521 73.7749 243.431 73.9797C243.341 74.1845 243.296 74.4063 243.299 74.6299C243.299 75.7199 244.169 76.0899 245.689 76.6299C247.209 77.1699 248.689 77.9099 248.689 79.9399C248.689 81.9699 246.989 83.0299 244.899 83.0299C242.809 83.0299 241.479 82.1799 241.119 80.1999L242.699 79.7999Z" fill="#B3B3B3"/>
<path d="M256.909 82.8302V73.4102H253.739V71.9302H261.809V73.4102H258.629V82.8302H256.909Z" fill="#B3B3B3"/>
<path d="M272.209 80.1702L270.149 76.3902C269.816 75.7961 269.545 75.1695 269.339 74.5202H269.269C269.34 75.1844 269.37 75.8523 269.359 76.5202V82.8702H267.659V71.9302H269.659L272.249 76.9302C272.474 77.3586 272.658 77.8072 272.799 78.2702H272.879C273.008 77.8032 273.193 77.3533 273.429 76.9302L275.999 71.9302H277.909V82.8302H276.189V76.4802C276.176 75.8117 276.213 75.1432 276.299 74.4802H276.229C276.013 75.1304 275.732 75.757 275.389 76.3502L273.389 80.1302L272.209 80.1702Z" fill="#B3B3B3"/>
<path d="M291.8 82.8302H285.08V71.9302H291.8V73.4102H286.79V76.6302H291.23V78.1102H286.79V81.3502H291.8V82.8302Z" fill="#B3B3B3"/>
<path d="M304.419 78.1702C305.069 79.1702 305.659 80.2402 305.659 80.2402H305.739C305.739 80.2402 305.639 79.0702 305.639 77.7002V71.9302H307.349V82.8302H305.659L301.309 76.6102C300.849 75.9314 300.429 75.227 300.049 74.5002H299.999C299.999 74.5002 300.109 75.6702 300.109 77.0702V82.8302H298.409V71.9302H300.149L304.419 78.1702Z" fill="#B3B3B3"/>
<path d="M316.359 82.8302V73.4102H313.189V71.9302H321.259V73.4102H318.079V82.8302H316.359Z" fill="#B3B3B3"/>
<path d="M327.68 79.7999C327.704 80.0801 327.783 80.3527 327.913 80.6021C328.042 80.8515 328.22 81.0728 328.436 81.2531C328.652 81.4335 328.901 81.5693 329.169 81.6529C329.438 81.7365 329.72 81.766 330 81.7399C331.16 81.7399 332 81.1999 332 80.1799C332 79.1599 331.52 78.7599 329.74 78.0899C327.96 77.4199 326.56 76.7999 326.56 74.7799C326.56 72.4999 328.33 71.6899 330.04 71.6899C332.04 71.6899 333.55 72.4699 333.74 74.5599L332.05 74.8899C332.045 74.6364 331.989 74.3865 331.884 74.1554C331.78 73.9244 331.63 73.7169 331.443 73.5458C331.256 73.3746 331.036 73.2433 330.796 73.1597C330.557 73.0762 330.303 73.0423 330.05 73.0599C329.829 73.0311 329.604 73.0504 329.39 73.1165C329.177 73.1827 328.981 73.2941 328.814 73.4432C328.648 73.5923 328.516 73.7755 328.427 73.9803C328.339 74.1851 328.295 74.4067 328.3 74.6299C328.3 75.7199 329.17 76.0899 330.68 76.6299C332.35 77.2399 333.74 77.9099 333.74 79.9399C333.74 81.9699 332.03 83.0299 329.94 83.0299C327.85 83.0299 326.52 82.1799 326.17 80.1999L327.68 79.7999Z" fill="#B3B3B3"/>
<path d="M111.12 56.1002H98.4797L96.3197 62.5002H87.1797L99.5897 28.2002H110.24L122.77 62.5002H113.39L111.12 56.1002ZM100.93 48.8202H108.56L107.62 46.2002C106.44 42.9465 105.527 39.6021 104.89 36.2002H104.65C103.923 39.5869 102.991 42.9264 101.86 46.2002L100.93 48.8202Z" fill="#285C3D"/>
<path d="M136.45 28.2002V54.9302H149.27V62.5102H127.72V28.2002H136.45Z" fill="#285C3D"/>
<path d="M164.12 28.2002V54.9302H176.93V62.5102H155.38V28.2002H164.12Z" fill="#285C3D"/>
<path d="M191.79 28.2002H183.05V62.5102H191.79V28.2002Z" fill="#285C3D"/>
<path d="M220.669 56.1002H207.999L205.849 62.5002H196.699L209.109 28.2002H219.799L232.319 62.5002H222.939L220.669 56.1002ZM210.479 48.8202H218.109L217.179 46.2002C215.994 42.9475 215.077 39.6029 214.439 36.2002H214.209C213.476 39.5863 212.541 42.9256 211.409 46.2002L210.479 48.8202Z" fill="#285C3D"/>
<path d="M257 43.7502C257.98 44.9998 258.841 46.3391 259.57 47.7502H259.8C259.8 47.7502 259.63 45.0702 259.63 40.7002V28.2002H268.36V62.5002H260.56L248.92 47.3002C247.77 45.8698 246.765 44.3289 245.92 42.7002H245.69C245.961 45.2341 246.077 47.7821 246.04 50.3302V62.5002H237.3V28.2002H245.4L257 43.7502Z" fill="#285C3D"/>
<path d="M306.11 55.11C303 60.52 299 63.2 291 63.2C281.56 63.2 275 56.68 275 45.26C275 33.84 281.23 27.5 292 27.5C299.33 27.5 303.82 30.82 306.32 36.35L297.82 40.49C296.89 37.28 295.43 35.25 291.76 35.25C286.93 35.25 283.96 39.09 283.96 45.5C283.96 51.91 286.64 55.5 291.96 55.5C293.388 55.4875 294.775 55.0244 295.925 54.1768C297.074 53.3293 297.926 52.1405 298.36 50.78L306.11 55.11Z" fill="#285C3D"/>
<path d="M335.29 62.5002H311.64V28.2002H335.29V35.7702H320.38V41.4802H333.49V48.7602H320.38V54.9302H335.29V62.5002Z" fill="#285C3D"/>
<path d="M79.2596 54.6401C79.2596 61.8255 77.1289 68.8495 73.1369 74.8239C69.1449 80.7984 63.471 85.4549 56.8325 88.2046C50.1941 90.9543 42.8893 91.6738 35.842 90.272C28.7947 88.8702 22.3213 85.4101 17.2404 80.3293C12.1596 75.2484 8.6995 68.775 7.2977 61.7277C5.8959 54.6804 6.61535 47.3756 9.36508 40.7372C12.1148 34.0987 16.7713 28.4248 22.7458 24.4328C28.7202 20.4408 35.7442 18.3101 42.9296 18.3101C52.5641 18.3127 61.8033 22.1412 68.6159 28.9538C75.4285 35.7664 79.257 45.0056 79.2596 54.6401Z" fill="#285C3D"/>
<path d="M60.8699 55.67L60.0199 53.61L52.0799 34.48H51.0799H38.5999L44.8399 49.52L46.5399 53.61H43.1499H29.6699L28.8199 55.67L20.8799 74.79H34.3499L42.2899 55.67H47.3899L51.4999 65.57H64.9799L60.8699 55.67Z" fill="white"/>
</g>
</g>
<defs>
<clipPath id="clip0_101_400">
<rect width="350.89" height="98.28" fill="white"/>
</clipPath>
</defs>
</svg>
