<svg id="Layer_1" data-name="Layer 1" xmlns="http://www.w3.org/2000/svg" xmlns:xlink="http://www.w3.org/1999/xlink" viewBox="0 0 328.69 72.65"><defs><style>.cls-1{fill:none;}.cls-2{clip-path:url(#clip-path);}.cls-3{fill:#fff;}.cls-4{fill:#6b6a6c;}</style><clipPath id="clip-path" transform="translate(-6.78 -9.49)"><rect class="cls-1" x="-249.82" y="-251.82" width="841.89" height="595.28"/></clipPath></defs><title>act-final-logo</title><g class="cls-2"><path class="cls-3" d="M108,74a2.06,2.06,0,0,1-.48-1l-.45-1.89c-.31-1.27-1-1.51-2-1.51h-1.46V74h-1.71V63.11h3.78c2.5,0,3.72,1,3.72,3.11a2.53,2.53,0,0,1-2.52,2.7v0a2,2,0,0,1,1.89,1.74l.56,2.15a2.83,2.83,0,0,0,.57,1.15Zm-4.42-5.85h2c1.37,0,2-.57,2-1.81s-.65-1.82-2-1.82h-2Z" transform="translate(-6.78 -9.49)"/><path class="cls-3" d="M122.11,71h-4.46l-1,3h-1.78l4-10.9h2.24L125,74h-1.84Zm-4-1.41h3.48l-.84-2.44a23.3,23.3,0,0,1-.85-2.87h-.07a29.48,29.48,0,0,1-.85,2.85Z" transform="translate(-6.78 -9.49)"/><path class="cls-3" d="M130.84,74V63.11h3.39c3.05,0,5.25,1.5,5.25,5.33,0,4-2.4,5.57-5.31,5.57ZM134,72.58c2.15,0,3.69-1.14,3.69-4.07s-1.59-4-3.52-4h-1.63v8Z" transform="translate(-6.78 -9.49)"/><polygon class="cls-3" points="145.9 64.52 139.18 64.52 139.18 53.62 145.9 53.62 145.9 55.1 140.88 55.1 140.88 58.32 145.32 58.32 145.32 59.8 140.88 59.8 140.88 63.04 145.9 63.04 145.9 64.52"/><path class="cls-3" d="M174.8,74.25l-1.35-1.43a4.91,4.91,0,0,1-3.62,1.41c-2,0-3.48-.89-3.48-2.9a3.25,3.25,0,0,1,2.48-3.17l-.49-.5a3.21,3.21,0,0,1-1-2.26c0-1.57,1.22-2.51,3-2.51s3,1,3,2.49a2.9,2.9,0,0,1-2.18,2.82l2.37,2.42a5.26,5.26,0,0,0,.42-2.05l1.46.4a6.11,6.11,0,0,1-.87,2.65L176,73.16ZM169.94,73a3.33,3.33,0,0,0,2.59-1L169.62,69A2.25,2.25,0,0,0,168,71.21,1.76,1.76,0,0,0,169.94,73m-1-7.62a2.06,2.06,0,0,0,.76,1.46l.63.65a2,2,0,0,0,1.37-2,1.38,1.38,0,0,0-2.76-.11" transform="translate(-6.78 -9.49)"/><rect class="cls-3" x="183.25" y="53.62" width="1.7" height="10.9"/><path class="cls-3" d="M205,69.34c.65,1,1.24,2.08,1.24,2.08h.08s-.1-1.17-.1-2.54V63.11h1.71V74H206.2l-4.35-6.22a21.5,21.5,0,0,1-1.26-2.11h-.07s.11,1.17.11,2.57V74h-1.7V63.11h1.74Z" transform="translate(-6.78 -9.49)"/><path class="cls-3" d="M217.75,70a21.81,21.81,0,0,1,.7,2.76h.07a19.8,19.8,0,0,1,.65-2.74l2.19-6.92h1.79L219.54,74H217.3l-3.57-10.9h1.83Z" transform="translate(-6.78 -9.49)"/><polygon class="cls-3" points="228.94 64.52 222.22 64.52 222.22 53.62 228.94 53.62 228.94 55.1 223.92 55.1 223.92 58.32 228.37 58.32 228.37 59.8 223.92 59.8 223.92 63.04 228.94 63.04 228.94 64.52"/><path class="cls-3" d="M242.87,71a2.13,2.13,0,0,0,2.28,2c1.16,0,2-.54,2-1.56s-.48-1.42-2.26-2.09S241.67,68,241.67,66c0-2.28,1.78-3.09,3.48-3.09,2,0,3.52.77,3.7,2.87l-1.68.33a1.87,1.87,0,0,0-2-1.83,1.56,1.56,0,0,0-1.76,1.57c0,1.09.87,1.46,2.39,2s3,1.27,3,3.31-1.7,3.09-3.79,3.09-3.43-.85-3.78-2.83Z" transform="translate(-6.78 -9.49)"/><polygon class="cls-3" points="250.31 64.52 250.31 55.1 247.14 55.1 247.14 53.62 255.21 53.62 255.21 55.1 252.03 55.1 252.03 64.52 250.31 64.52"/><path class="cls-3" d="M272.39,71.34l-2.06-3.77a10,10,0,0,1-.81-1.87h-.08a14.63,14.63,0,0,1,.1,2V74h-1.71V63.11h2l2.6,5a7.48,7.48,0,0,1,.55,1.33H273a6.38,6.38,0,0,1,.56-1.33l2.57-5h1.91V74h-1.72V67.66a13.32,13.32,0,0,1,.11-2h-.08a9.49,9.49,0,0,1-.83,1.87l-2,3.77Z" transform="translate(-6.78 -9.49)"/><polygon class="cls-3" points="285.2 64.52 278.49 64.52 278.49 53.62 285.2 53.62 285.2 55.1 280.19 55.1 280.19 58.32 284.63 58.32 284.63 59.8 280.19 59.8 280.19 63.04 285.2 63.04 285.2 64.52"/><path class="cls-3" d="M304.6,69.34c.65,1,1.24,2.08,1.24,2.08h.07s-.09-1.17-.09-2.54V63.11h1.7V74h-1.68l-4.35-6.22a19.42,19.42,0,0,1-1.26-2.11h-.07s.11,1.17.11,2.57V74h-1.7V63.11h1.74Z" transform="translate(-6.78 -9.49)"/><polygon class="cls-3" points="309.76 64.52 309.76 55.1 306.59 55.1 306.59 53.62 314.66 53.62 314.66 55.1 311.48 55.1 311.48 64.52 309.76 64.52"/><path class="cls-3" d="M327.86,71a2.12,2.12,0,0,0,2.27,2c1.17,0,2-.54,2-1.56s-.48-1.42-2.25-2.09S326.65,68,326.65,66c0-2.28,1.78-3.09,3.48-3.09,2,0,3.52.77,3.71,2.87l-1.69.33a1.87,1.87,0,0,0-2-1.83,1.56,1.56,0,0,0-1.76,1.57c0,1.09.87,1.46,2.39,2,1.67.61,3.06,1.27,3.06,3.31s-1.71,3.09-3.8,3.09-3.42-.85-3.78-2.83Z" transform="translate(-6.78 -9.49)"/><path class="cls-3" d="M111.29,47.28H98.66l-2.16,6.4H87.36l12.4-34.3h10.66l12.52,34.3h-9.37ZM101.1,40h7.63l-.93-2.62a63,63,0,0,1-2.74-10h-.23a86.15,86.15,0,0,1-2.79,10Z" transform="translate(-6.78 -9.49)"/><polygon class="cls-3" points="129.85 9.89 129.85 36.62 142.67 36.62 142.67 44.19 121.12 44.19 121.12 9.89 129.85 9.89"/><polygon class="cls-3" points="157.52 9.89 157.52 36.62 170.33 36.62 170.33 44.19 148.78 44.19 148.78 9.89 157.52 9.89"/><rect class="cls-3" x="176.45" y="9.89" width="8.74" height="34.31"/><path class="cls-3" d="M220.85,47.28H208.21l-2.16,6.4h-9.14l12.41-34.3H220l12.53,34.3h-9.38ZM210.66,40h7.63l-.94-2.62a63.48,63.48,0,0,1-2.73-10h-.24a86.15,86.15,0,0,1-2.79,10Z" transform="translate(-6.78 -9.49)"/><path class="cls-3" d="M257.19,34.93a24.61,24.61,0,0,1,2.56,4H260s-.18-2.68-.18-7.05V19.38h8.74v34.3h-7.81L249.1,38.48a26.93,26.93,0,0,1-3-4.6h-.24a63.07,63.07,0,0,1,.35,7.63V53.68h-8.73V19.38h8.09Z" transform="translate(-6.78 -9.49)"/><path class="cls-3" d="M306.29,46.29c-3.15,5.41-7.17,8.09-15.09,8.09-9.43,0-15.95-6.52-15.95-17.94s6.23-17.76,17-17.76c7.34,0,11.83,3.32,14.33,8.85l-8.5,4.14c-.94-3.21-2.39-5.25-6.06-5.25-4.84,0-7.81,3.85-7.81,10.26s2.68,10,8,10a6.78,6.78,0,0,0,6.41-4.72Z" transform="translate(-6.78 -9.49)"/><polygon class="cls-3" points="328.69 44.19 305.05 44.19 305.05 9.89 328.69 9.89 328.69 17.46 313.78 17.46 313.78 23.17 326.88 23.17 326.88 30.45 313.78 30.45 313.78 36.62 328.69 36.62 328.69 44.19"/><path class="cls-3" d="M79.43,45.82A36.33,36.33,0,1,1,43.1,9.49,36.32,36.32,0,0,1,79.43,45.82" transform="translate(-6.78 -9.49)"/><polygon class="cls-4" points="54.27 37.36 53.41 35.3 45.48 16.17 44.48 16.17 32 16.17 38.24 31.21 39.94 35.3 36.55 35.3 23.07 35.3 22.22 37.36 14.28 56.48 27.75 56.48 35.69 37.36 40.79 37.36 44.9 47.26 58.38 47.26 54.27 37.36"/></g></svg>