<svg id="Layer_1" data-name="Layer 1" xmlns="http://www.w3.org/2000/svg" xmlns:xlink="http://www.w3.org/1999/xlink" viewBox="0 0 350.89 98.28"><defs><style>.cls-1{fill:none;}.cls-2{fill:#b3b3b3;}.cls-3{clip-path:url(#clip-path);}.cls-4{fill:#285c3d;}.cls-5{fill:#fff;}</style><clipPath id="clip-path"><rect class="cls-1" x="-250" y="-243" width="841.89" height="595.28"/></clipPath></defs><title>act-final-logo</title><polygon class="cls-2" points="90.96 82.83 90.96 73.41 87.79 73.41 87.79 71.93 95.86 71.93 95.86 73.41 92.68 73.41 92.68 82.83 90.96 82.83"/><g class="cls-3"><path class="cls-2" d="M107.83,82.83a2.06,2.06,0,0,1-.48-1l-.44-1.89c-.32-1.27-1-1.51-2-1.51h-1.46v4.42h-1.7V71.93h3.77c2.5,0,3.72,1,3.72,3.11a2.53,2.53,0,0,1-2.52,2.7v.06a2,2,0,0,1,1.89,1.74l.56,2.14a3,3,0,0,0,.57,1.15ZM103.41,77h2c1.37,0,2-.57,2-1.81s-.65-1.82-2-1.82h-2Z"/><path class="cls-2" d="M121.93,79.85h-4.46l-1,3h-1.77l4-10.9h2.24l3.94,10.9H123Zm-4-1.41h3.48L120.6,76a23.3,23.3,0,0,1-.85-2.87h-.08a29.48,29.48,0,0,1-.85,2.85Z"/><path class="cls-2" d="M130.66,82.83V71.93h3.39c3,0,5.26,1.5,5.26,5.33,0,4-2.41,5.57-5.32,5.57Zm3.17-1.42c2.14,0,3.68-1.15,3.68-4.08s-1.59-4-3.52-4h-1.63v8.06Z"/><polygon class="cls-2" points="152.5 82.83 145.78 82.83 145.78 71.93 152.5 71.93 152.5 73.41 147.48 73.41 147.48 76.63 151.92 76.63 151.92 78.11 147.48 78.11 147.48 81.35 152.5 81.35 152.5 82.83"/><path class="cls-2" d="M174.63,83.07l-1.35-1.42a5,5,0,0,1-3.63,1.4c-2,0-3.48-.89-3.48-2.9A3.25,3.25,0,0,1,168.65,77l-.48-.5a3.22,3.22,0,0,1-1-2.26c0-1.57,1.22-2.51,3-2.51s3,1,3,2.5c0,1.31-.68,2.2-2.18,2.81l2.37,2.42a5.09,5.09,0,0,0,.42-2l1.47.41a6.11,6.11,0,0,1-.87,2.64L175.81,82Zm-4.87-1.29a3.34,3.34,0,0,0,2.59-1.06l-2.91-2.94A2.25,2.25,0,0,0,167.83,80a1.77,1.77,0,0,0,1.93,1.74m-1-7.63a2.06,2.06,0,0,0,.76,1.46l.63.65a2,2,0,0,0,1.37-2,1.38,1.38,0,0,0-2.76-.11"/><rect class="cls-2" x="189.85" y="71.93" width="1.7" height="10.9"/><path class="cls-2" d="M204.79,78.17c.64,1,1.24,2.07,1.24,2.07h.07S206,79.07,206,77.7V71.93h1.7v10.9H206l-4.35-6.22a19.42,19.42,0,0,1-1.26-2.11h-.08s.11,1.17.11,2.57v5.76h-1.7V71.93h1.74Z"/><path class="cls-2" d="M217.57,78.83a21.81,21.81,0,0,1,.7,2.76h.08a19.8,19.8,0,0,1,.65-2.74l2.18-6.92H223l-3.61,10.9h-2.24l-3.58-10.9h1.84Z"/><polygon class="cls-2" points="235.54 82.83 228.82 82.83 228.82 71.93 235.54 71.93 235.54 73.41 230.52 73.41 230.52 76.63 234.97 76.63 234.97 78.11 230.52 78.11 230.52 81.35 235.54 81.35 235.54 82.83"/><path class="cls-2" d="M242.7,79.8A2.12,2.12,0,0,0,245,81.74c1.17,0,2-.54,2-1.56s-.48-1.42-2.25-2.09-3.19-1.29-3.19-3.31c0-2.28,1.78-3.09,3.48-3.09,2,0,3.52.78,3.7,2.87l-1.68.33a1.87,1.87,0,0,0-2-1.83,1.56,1.56,0,0,0-1.76,1.57c0,1.09.87,1.46,2.39,2s3,1.28,3,3.31-1.7,3.09-3.79,3.09-3.42-.85-3.78-2.83Z"/><polygon class="cls-2" points="256.91 82.83 256.91 73.41 253.74 73.41 253.74 71.93 261.81 71.93 261.81 73.41 258.63 73.41 258.63 82.83 256.91 82.83"/><path class="cls-2" d="M272.21,80.17l-2.06-3.78a10,10,0,0,1-.81-1.87h-.07a16.44,16.44,0,0,1,.09,2v6.35h-1.7V71.93h2l2.59,5a7.71,7.71,0,0,1,.55,1.34h.08a6.07,6.07,0,0,1,.55-1.34l2.57-5h1.91v10.9h-1.72V76.48a13.49,13.49,0,0,1,.11-2h-.07a10.08,10.08,0,0,1-.84,1.87l-2,3.78Z"/><polygon class="cls-2" points="291.8 82.83 285.08 82.83 285.08 71.93 291.8 71.93 291.8 73.41 286.79 73.41 286.79 76.63 291.23 76.63 291.23 78.11 286.79 78.11 286.79 81.35 291.8 81.35 291.8 82.83"/><path class="cls-2" d="M304.42,78.17c.65,1,1.24,2.07,1.24,2.07h.08s-.1-1.17-.1-2.54V71.93h1.71v10.9h-1.69l-4.35-6.22a21.5,21.5,0,0,1-1.26-2.11H300s.11,1.17.11,2.57v5.76h-1.7V71.93h1.74Z"/><polygon class="cls-2" points="316.36 82.83 316.36 73.41 313.19 73.41 313.19 71.93 321.26 71.93 321.26 73.41 318.08 73.41 318.08 82.83 316.36 82.83"/><path class="cls-2" d="M327.68,79.8A2.13,2.13,0,0,0,330,81.74c1.16,0,2-.54,2-1.56s-.48-1.42-2.26-2.09-3.18-1.29-3.18-3.31c0-2.28,1.77-3.09,3.48-3.09,2,0,3.51.78,3.7,2.87l-1.69.33a1.87,1.87,0,0,0-2-1.83,1.55,1.55,0,0,0-1.75,1.57c0,1.09.87,1.46,2.38,2,1.67.61,3.06,1.28,3.06,3.31s-1.71,3.09-3.8,3.09-3.42-.85-3.77-2.83Z"/><path class="cls-4" d="M111.12,56.1H98.48l-2.16,6.4H87.18L99.59,28.2h10.65l12.53,34.3h-9.38Zm-10.19-7.28h7.63l-.94-2.62a63.73,63.73,0,0,1-2.73-10h-.24a85.53,85.53,0,0,1-2.79,10Z"/><polygon class="cls-4" points="136.45 28.2 136.45 54.93 149.27 54.93 149.27 62.51 127.72 62.51 127.72 28.2 136.45 28.2"/><polygon class="cls-4" points="164.12 28.2 164.12 54.93 176.93 54.93 176.93 62.51 155.38 62.51 155.38 28.2 164.12 28.2"/><rect class="cls-4" x="183.05" y="28.2" width="8.74" height="34.31"/><path class="cls-4" d="M220.67,56.1H208l-2.15,6.4h-9.15l12.41-34.3H219.8l12.52,34.3h-9.38Zm-10.19-7.28h7.63l-.93-2.62a63.2,63.2,0,0,1-2.74-10h-.23a87,87,0,0,1-2.8,10Z"/><path class="cls-4" d="M257,43.75a25.27,25.27,0,0,1,2.57,4h.23s-.17-2.68-.17-7.05V28.2h8.73V62.5h-7.8L248.92,47.3a27.76,27.76,0,0,1-3-4.6h-.23a63.07,63.07,0,0,1,.35,7.63V62.5h-8.74V28.2h8.1Z"/><path class="cls-4" d="M306.11,55.11C303,60.52,299,63.2,291,63.2c-9.44,0-16-6.52-16-17.94s6.23-17.76,17-17.76c7.33,0,11.82,3.32,14.32,8.85l-8.5,4.14c-.93-3.21-2.39-5.24-6.06-5.24-4.83,0-7.8,3.84-7.8,10.25s2.68,10,8,10a6.78,6.78,0,0,0,6.4-4.72Z"/><polygon class="cls-4" points="335.29 62.5 311.64 62.5 311.64 28.2 335.29 28.2 335.29 35.77 320.38 35.77 320.38 41.48 333.49 41.48 333.49 48.76 320.38 48.76 320.38 54.93 335.29 54.93 335.29 62.5"/><path class="cls-4" d="M79.26,54.64A36.33,36.33,0,1,1,42.93,18.31,36.34,36.34,0,0,1,79.26,54.64"/><polygon class="cls-5" points="60.87 55.67 60.02 53.61 52.08 34.48 51.08 34.48 38.6 34.48 44.84 49.52 46.54 53.61 43.15 53.61 29.67 53.61 28.82 55.67 20.88 74.79 34.35 74.79 42.29 55.67 47.39 55.67 51.5 65.57 64.98 65.57 60.87 55.67"/></g></svg>