<svg xmlns="http://www.w3.org/2000/svg" version="1.1" xmlns:xlink="http://www.w3.org/1999/xlink" x="0" y="0" viewBox="0 0 512 512" style="enable-background:new 0 0 512 512" xml:space="preserve"><g><path d="M403.48 0H108.52C48.682 0 0 48.682 0 108.52v239.15c0 4.143 3.358 7.5 7.5 7.5s7.5-3.357 7.5-7.5V108.52C15 56.953 56.953 15 108.52 15h294.96C455.047 15 497 56.953 497 108.52v31.631c0 4.143 3.357 7.5 7.5 7.5s7.5-3.357 7.5-7.5V108.52C512 48.682 463.318 0 403.48 0zM504.5 167.65a7.499 7.499 0 0 0-7.5 7.5v228.33c0 51.566-41.953 93.52-93.52 93.52H108.52C56.953 497 15 455.047 15 403.48v-20.81c0-4.143-3.358-7.5-7.5-7.5s-7.5 3.357-7.5 7.5v20.811C0 463.318 48.682 512 108.52 512h294.96C463.318 512 512 463.318 512 403.48V175.15a7.5 7.5 0 0 0-7.5-7.5z" fill="#fff" opacity="1" data-original="#000000"/><path d="M190.205 195.604c15.998 0 31.422 4.708 44.605 13.614 6.132 4.145 13.51 5.649 20.776 4.245 7.265-1.407 13.547-5.559 17.69-11.691s5.648-13.51 4.242-20.774c-1.407-7.264-5.559-13.546-11.69-17.688-22.379-15.119-48.529-23.111-75.624-23.111-74.562 0-135.224 60.66-135.224 135.223s60.661 135.224 135.224 135.224c29.824 0 56.6-9.808 77.432-28.362a114.173 114.173 0 0 0 11.529-11.891c4.756-5.67 7.019-12.852 6.372-20.224-.646-7.371-4.124-14.05-9.794-18.805-5.67-4.756-12.852-7.023-20.224-6.372-7.372.646-14.05 4.125-18.805 9.795a58.82 58.82 0 0 1-5.927 6.118c-10.678 9.512-24.333 14.334-40.584 14.334-44.011 0-79.817-35.806-79.817-79.817.002-44.013 35.807-79.818 79.819-79.818zM95.388 275.42c0 52.282 42.535 94.817 94.817 94.817 20.042 0 37.053-6.101 50.562-18.133a74.03 74.03 0 0 0 7.442-7.681 12.62 12.62 0 0 1 8.623-4.491 12.604 12.604 0 0 1 9.273 2.923 12.614 12.614 0 0 1 4.491 8.622 12.612 12.612 0 0 1-2.923 9.273 99.046 99.046 0 0 1-10.012 10.328c-18.043 16.07-41.369 24.564-67.457 24.564-66.292 0-120.224-53.932-120.224-120.224 0-66.291 53.932-120.223 120.224-120.223 24.09 0 47.337 7.103 67.227 20.541 5.804 3.921 7.336 11.833 3.415 17.636a12.622 12.622 0 0 1-8.112 5.362 12.623 12.623 0 0 1-9.526-1.947c-15.674-10.589-34.002-16.186-53.004-16.186-52.282.003-94.816 42.537-94.816 94.819zM298.55 324.55c0 43.693 35.543 79.24 79.23 79.24 9.913 0 19.503-1.796 28.604-5.349 5.072 7.445 13.636 12.198 22.937 12.198 15.273 0 27.699-12.426 27.699-27.699v-58.39c0-4.143-3.357-7.5-7.5-7.5s-7.5 3.357-7.5 7.5v58.391c0 7.002-5.697 12.699-12.699 12.699-5.592 0-10.604-3.747-12.187-9.112a7.499 7.499 0 0 0-10.569-4.574c-9 4.537-18.685 6.837-28.784 6.837-35.417 0-64.23-28.818-64.23-64.24 0-35.416 28.813-64.229 64.23-64.229 10.1 0 19.784 2.3 28.784 6.837a7.508 7.508 0 0 0 6.356.186 7.502 7.502 0 0 0 4.214-4.763c1.582-5.37 6.594-9.12 12.186-9.12 7.002 0 12.699 5.701 12.699 12.71v23.38c0 4.143 3.357 7.5 7.5 7.5s7.5-3.357 7.5-7.5v-23.38c0-15.279-12.426-27.71-27.699-27.71-9.303 0-17.868 4.757-22.939 12.207-9.1-3.552-18.688-5.347-28.601-5.347-43.688-.002-79.231 35.54-79.231 79.228z" fill="#fff" opacity="1" data-original="#000000"/><path d="M377.782 285.724c-21.411 0-38.83 17.42-38.83 38.831s17.419 38.83 38.83 38.83 38.83-17.419 38.83-38.83-17.419-38.831-38.83-38.831zm0 62.661c-13.14 0-23.83-10.69-23.83-23.83 0-13.141 10.69-23.831 23.83-23.831s23.83 10.69 23.83 23.831c0 13.139-10.69 23.83-23.83 23.83zM370.559 151.424c5.374-8.02 9.618-14.354 9.618-23.367 0-14.723-11.978-26.7-26.7-26.7-12.73 0-23.749 9.056-26.2 21.532a7.502 7.502 0 0 0 5.914 8.806 7.504 7.504 0 0 0 8.805-5.913c1.073-5.461 5.901-9.425 11.481-9.425 6.451 0 11.7 5.249 11.7 11.7 0 4.077-1.825 7.174-7.037 14.955-23.265 33.239-26.429 37.552-26.545 37.71a7.5 7.5 0 0 0 6.024 11.967h38.238c4.143 0 7.5-3.357 7.5-7.5s-3.357-7.5-7.5-7.5h-23.725c3.999-5.676 9.838-13.991 18.34-26.139l.087-.126zM428.263 192.861c15.856 0 28.756-12.899 28.756-28.756v-33.993c0-15.856-12.899-28.756-28.756-28.756s-28.756 12.899-28.756 28.756v33.993c0 15.857 12.899 28.756 28.756 28.756zm-13.756-62.749c0-7.585 6.171-13.756 13.756-13.756s13.756 6.171 13.756 13.756v33.993c0 7.585-6.171 13.756-13.756 13.756s-13.756-6.171-13.756-13.756z" fill="#fff" opacity="1" data-original="#000000"/></g></svg>