<svg xmlns="http://www.w3.org/2000/svg" version="1.1" xmlns:xlink="http://www.w3.org/1999/xlink" x="0" y="0" viewBox="0 0 64 64" style="enable-background:new 0 0 512 512" xml:space="preserve"><g><path d="M55 57.23v-8.876c.386-.532 1-1.647 1-3.354s-.614-2.822-1-3.354V22.354c.386-.532 1-1.647 1-3.354s-.614-2.822-1-3.354V6.77c.421-.185.819-.47 1.152-.865A3.794 3.794 0 0 0 57 3.5C57 1.57 55.43 0 53.5 0h-43c-.938 0-1.817.363-2.477 1.023S7 2.562 7 3.5c0 1.458.862 2.764 2 3.27v8.876c-.386.532-1 1.647-1 3.354s.614 2.822 1 3.354v19.291c-.386.532-1 1.647-1 3.354s.614 2.822 1 3.354v8.875c-.421.185-.819.47-1.152.865A3.794 3.794 0 0 0 7 60.498c0 1.93 1.57 3.5 3.5 3.5h43c.938 0 1.817-.363 2.477-1.023S57 61.436 57 60.498c0-1.458-.862-2.764-2-3.27zM10 19c0-.992.292-1.652.501-2h13.531a16.976 16.976 0 0 0-5.303 4.374A17.03 17.03 0 0 0 14.999 32c0 3.19.919 6.317 2.594 9h-6.594V23h3a1 1 0 0 0 0-2h-3.498c-.212-.352-.502-1.011-.502-2zm44 26c0 .992-.292 1.652-.501 2H39.968a16.976 16.976 0 0 0 5.303-4.374A17.03 17.03 0 0 0 49.001 32c0-3.19-.919-6.316-2.594-9h6.594v18h-3a1 1 0 0 0 0 2h3.498c.212.352.502 1.011.502 2zm-.502-28c.212.352.502 1.011.502 2s-.292 1.652-.501 2h-8.564a16.945 16.945 0 0 0-4.967-4zm-9.788 5.625C45.831 25.269 47 28.598 47 32s-1.168 6.731-3.291 9.375C40.847 44.95 36.579 47 32 47s-8.848-2.05-11.71-5.626C18.169 38.731 17 35.402 17 32s1.168-6.731 3.291-9.375C23.153 19.05 27.421 17 32 17s8.848 2.05 11.709 5.625zM10.502 47c-.212-.352-.502-1.011-.502-2s.292-1.652.501-2h8.564a16.958 16.958 0 0 0 4.967 4zM11 49h42v8H11zM9.437 2.437A1.49 1.49 0 0 1 10.5 2h43c.827 0 1.5.673 1.5 1.5 0 .418-.143.832-.384 1.125-.195.231-.431.375-.616.375H24a1 1 0 0 0 0 2h29v8H11V7h5a1 1 0 0 0 0-2h-6c-.403 0-1-.63-1-1.5 0-.404.155-.781.437-1.063zm45.126 59.126A1.49 1.49 0 0 1 53.5 62h-43c-.827 0-1.5-.673-1.5-1.5 0-.418.143-.832.384-1.125.195-.231.431-.375.616-.375h44c.403 0 1 .63 1 1.5 0 .404-.155.781-.437 1.063z" fill="#fff" opacity="1" data-original="#000000"/><path d="M25.739 40.591A9.437 9.437 0 0 0 32 43c4.878 0 9-3.815 9-8.33a8.05 8.05 0 0 0-1.47-4.632l-6.71-9.61c-.374-.536-1.266-.536-1.64 0l-6.709 9.609A8.049 8.049 0 0 0 23 34.67c0 2.232.974 4.336 2.739 5.921zm.371-9.409L32 22.746l5.891 8.437A6.056 6.056 0 0 1 39 34.67c0 3.431-3.206 6.33-7 6.33a7.416 7.416 0 0 1-4.922-1.894C25.738 37.902 25 36.327 25 34.67c0-1.244.384-2.45 1.11-3.488z" fill="#fff" opacity="1" data-original="#000000"/><path d="M32 38.5c1.289 0 2.483-.488 3.279-1.339.529-.566 1.137-1.577 1.028-3.178a.993.993 0 0 0-1.065-.93.999.999 0 0 0-.93 1.065c.048.711-.118 1.275-.495 1.678-.413.441-1.092.705-1.818.705a1 1 0 0 0 0 2z" fill="#fff" opacity="1" data-original="#000000"/><circle cx="20" cy="6" r="1" fill="#fff" opacity="1" data-original="#000000"/></g></svg>