<svg xmlns="http://www.w3.org/2000/svg" version="1.1" xmlns:xlink="http://www.w3.org/1999/xlink" x="0" y="0" viewBox="0 0 64 64" style="enable-background:new 0 0 512 512" xml:space="preserve"><g><path d="M40 61H8a1 1 0 0 1-1-1V22a1 1 0 0 1 1-1h32a1 1 0 0 1 1 1v38a1 1 0 0 1-1 1zM9 59h30V23H9z" fill="currentColor" opacity="1" data-original="#000000"/><path d="M54 61H40a1 1 0 0 1-1-1V22a1 1 0 0 1 1-1h14a1 1 0 0 1 1 1v38a1 1 0 0 1-1 1zm-13-2h12V23H41z" fill="currentColor" opacity="1" data-original="#000000"/><path d="M40 23H8a1 1 0 0 1-.86-1.5l7-12A1 1 0 0 1 15 9h32a1 1 0 0 1 .86 1.5l-7 12a1 1 0 0 1-.86.5zM9.74 21h29.69l5.83-10H15.57z" fill="currentColor" opacity="1" data-original="#000000"/><path d="M54 23H40a1 1 0 0 1-.86-1.5l7-12a1 1 0 0 1 1.72 0l7 12A1 1 0 0 1 54 23zm-12.26-2h10.52L47 12z" fill="currentColor" opacity="1" data-original="#000000"/><path d="M47 11H15a1 1 0 0 1-1-1V4a1 1 0 0 1 1-1h32a1 1 0 0 1 1 1v6a1 1 0 0 1-1 1zM16 9h30V5H16zM35 37H13a1 1 0 0 1-1-1v-6a1 1 0 0 1 1-1h22a1 1 0 0 1 1 1v6a1 1 0 0 1-1 1zm-21-2h20v-4H14z" fill="currentColor" opacity="1" data-original="#000000"/></g></svg>