<svg xmlns="http://www.w3.org/2000/svg" version="1.1" xmlns:xlink="http://www.w3.org/1999/xlink" x="0" y="0" viewBox="0 0 64 64" style="enable-background:new 0 0 512 512" xml:space="preserve"><g><path d="M38.08 50.608c-1.977 0-3.587-1.61-3.587-3.587s1.61-3.587 3.587-3.587 3.587 1.61 3.587 3.587a3.591 3.591 0 0 1-3.587 3.587zm0-5.396a1.81 1.81 0 0 0 0 3.618 1.81 1.81 0 0 0 0-3.618zM52.608 18.41c-4.349-4.664-10.188-7.321-16.52-7.548V8.89c0-1.303-.874-2.4-2.06-2.768V3.2c0-1.76-1.43-3.2-3.2-3.2h-6.47c-1.77 0-3.21 1.44-3.21 3.2v2.924a2.904 2.904 0 0 0-2.05 2.766v2.288c-6.16 3.07-9.399 11.78-8.67 23.532l.148 1.911a4.159 4.159 0 0 0-5.01 4.064 4.16 4.16 0 0 0 4.155 4.157c.515 0 1.004-.106 1.46-.278l.338 4.355c-3.686.512-6.536 3.676-6.536 7.501 0 4.179 3.4 7.58 7.58 7.58h35.405c5.08 0 9.34-3.97 9.69-9.04l1.3-18.65c.46-6.66-1.79-13.02-6.35-17.9zM24.358 1.78h6.47c.79 0 1.43.64 1.43 1.42v2.78h-9.33V3.2c0-.78.64-1.42 1.43-1.42zm-2.35 5.98h11.17c.62 0 1.13.51 1.13 1.13v1.95h-13.43V8.89c0-.62.5-1.13 1.13-1.13zM7.343 40.686a2.38 2.38 0 0 1 2.378-2.377 2.38 2.38 0 0 1 2.378 2.377 2.382 2.382 0 0 1-2.378 2.378 2.381 2.381 0 0 1-2.378-2.378zm25.633 21.536H12.563c-3.2 0-5.802-2.602-5.802-5.802s2.602-5.804 5.802-5.804a5.755 5.755 0 0 1 4.805 2.524c.28.41.83.51 1.23.23.41-.28.51-.83.24-1.23a7.344 7.344 0 0 0-1.893-1.909 7.551 7.551 0 0 1 6.165-3.175c3.445 0 6.4 2.29 7.274 5.538a5.908 5.908 0 0 0-1.406.936c-.37.33-.4.89-.07 1.26a.911.911 0 0 0 1.26.07c.44-.4.952-.713 1.512-.883 2.79-.883 5.511 1.257 5.511 4.007 0 2.337-1.89 4.238-4.215 4.238zM17.105 30.603c.8 0 1.45.65 1.45 1.45 0 .8-.65 1.45-1.45 1.45-.8 0-1.45-.65-1.45-1.45 0-.8.65-1.45 1.45-1.45zm3.228 1.45a3.229 3.229 0 0 0-1.93-2.95c.144-1.095.328-2.138.585-3.073.63-2.24 2.73-3.81 5.12-3.81 2.33 0 4.35 1.45 5.03 3.6.44 1.4 1.01 2.77 1.69 4.08 2.79 5.39 7.31 9.6 13.04 12.17 1.87.84 3.06 2.75 3.06 4.82 0 .13 0 .25-.01.37l-.35 4.89c-.16 2.26-2.05 4.03-4.31 4.03H38.68c-.868-2.698-3.61-4.588-6.598-4.117-1.102-3.983-4.738-6.785-8.972-6.785-1.44 0-2.825.341-4.074.943l-.808-10.461c-.017-.232-.019-.454-.03-.683a3.223 3.223 0 0 0 2.135-3.024zm36.845 4.127-1.3 18.66c-.28 4.14-3.76 7.38-7.91 7.38H37.226a6.007 6.007 0 0 0 1.743-4.236l-.002-.034h3.291c3.19 0 5.86-2.49 6.09-5.67l.34-4.9c.21-2.95-1.44-5.73-4.09-6.93-5.37-2.4-9.58-6.34-12.2-11.37a23.98 23.98 0 0 1-1.56-3.79c-.92-2.9-3.62-4.85-6.73-4.85-3.18 0-5.99 2.1-6.83 5.11-.285 1.023-.487 2.144-.637 3.322a3.223 3.223 0 0 0-2.764 3.18 3.231 3.231 0 0 0 2.541 3.152c.012.23.017.452.03.686l.878 11.4a9.21 9.21 0 0 0-1.955 2.073 7.567 7.567 0 0 0-2.073-.49l-.425-5.51a4.118 4.118 0 0 0 1.004-2.677c0-1.255-.57-2.368-1.453-3.13l-.226-2.966c-.69-11.19 2.29-19.38 7.98-21.97h15.03c6.17 0 11.89 2.49 16.1 7 4.22 4.52 6.3 10.4 5.87 16.56zM39.338 16.6c-1.24-.26-2.54.13-3.44 1.05-.93.96-1.3 2.3-.99 3.59.44 1.73 1.02 3.29 1.78 4.75 2.37 4.57 6.44 8.25 11.47 10.35.48.2.97.29 1.46.29.83 0 1.64-.27 2.32-.81 1.1-.87 1.62-2.2 1.41-3.57-.43-2.69-1.58-6.64-4.62-10.18-2.37-2.78-5.62-4.67-9.39-5.47zm11.5 17.82c-.36.29-.79.44-1.22.44-.26 0-.52-.06-.77-.16-4.65-1.94-8.4-5.33-10.58-9.53-.7-1.34-1.23-2.76-1.63-4.35-.17-.69.03-1.41.53-1.92.38-.39.87-.6 1.38-.6.14 0 .28.01.42.04 3.38.72 6.29 2.41 8.41 4.88 2.76 3.23 3.82 6.85 4.21 9.31.12.72-.16 1.43-.75 1.89z" fill="#fff" opacity="1" data-original="#000000"/></g></svg>