<svg xmlns="http://www.w3.org/2000/svg" version="1.1" xmlns:xlink="http://www.w3.org/1999/xlink" xmlns:svgjs="http://svgjs.com/svgjs" x="0" y="0" viewBox="0 0 512 512" style="enable-background:new 0 0 512 512" xml:space="preserve" class=""><g><path fill="#000000" d="M256 280.2c-6.94 0-12.74-2.34-17.4-7-4.67-4.66-7-10.46-7-17.4 0-6.93 2.33-12.66 7-17.2 4.66-4.53 10.46-6.8 17.4-6.8 6.93 0 12.73 2.27 17.4 6.8 4.66 4.54 7 10.27 7 17.2 0 6.94-2.34 12.74-7 17.4-4.67 4.66-10.47 7-17.4 7z" data-original="#8000ff" class="" opacity="1"/><path fill="#231f20" d="M256 282.7c-7.59 0-14.04-2.6-19.17-7.73-5.13-5.12-7.73-11.57-7.73-19.17s2.61-13.99 7.76-18.99c5.13-4.98 11.57-7.51 19.14-7.51s14.01 2.53 19.14 7.51c5.15 5.01 7.76 11.4 7.76 18.99s-2.6 14.04-7.73 19.17c-5.14 5.13-11.59 7.73-19.17 7.73zm0-48.4c-6.32 0-11.44 1.99-15.66 6.09-4.2 4.08-6.24 9.12-6.24 15.41 0 6.31 2.05 11.42 6.27 15.63 4.22 4.22 9.33 6.27 15.63 6.27 6.29 0 11.41-2.05 15.63-6.27s6.27-9.33 6.27-15.63c0-6.28-2.04-11.32-6.24-15.41-4.23-4.1-9.35-6.09-15.66-6.09z" data-original="#231f20"/></g></svg>