<svg xmlns="http://www.w3.org/2000/svg" version="1.1" xmlns:xlink="http://www.w3.org/1999/xlink" x="0" y="0" viewBox="0 0 512 512" style="enable-background:new 0 0 512 512" xml:space="preserve"><g><path d="M432.916 205.039a57.752 57.752 0 1 0-41.322.024 93.605 93.605 0 0 0-65.39 43.414 134.744 134.744 0 0 0-43.847-13.041 82.817 82.817 0 1 0-52.715 0 134.738 134.738 0 0 0-43.842 13.041 93.619 93.619 0 0 0-65.39-43.414 57.754 57.754 0 1 0-41.321-.024A93.159 93.159 0 0 0 0 297.009v39.608a8 8 0 0 0 8 8h104.435a135.994 135.994 0 0 0-2.448 25.694v59.563a8 8 0 0 0 8 8h276.026a8 8 0 0 0 8-8v-59.563a135.994 135.994 0 0 0-2.448-25.694H504a8 8 0 0 0 8-8v-39.608a93.159 93.159 0 0 0-79.084-91.97ZM407.78 220h8.888l8.492 61.21-12.935 15.428-12.936-15.428Zm-37.308-68.861a41.753 41.753 0 1 1 41.753 41.752 41.8 41.8 0 0 1-41.753-41.756ZM279.69 347.764 256 376.019l-23.691-28.255 13.5-97.3h20.385Zm-90.507-190.82A66.817 66.817 0 1 1 256 223.761a66.894 66.894 0 0 1-66.817-66.817ZM95.331 220h8.889l8.491 61.21-12.936 15.424-12.935-15.428Zm-37.308-68.865a41.753 41.753 0 1 1 41.752 41.752 41.8 41.8 0 0 1-41.752-41.752Zm-3.9 177.482c.02-.229.035-.459.035-.694v-40.091a8 8 0 0 0-16 0v40.091c0 .235.015.465.035.694H16v-31.608A77.126 77.126 0 0 1 79 221.3l-8.5 61.225a8 8 0 0 0 1.793 6.24l21.348 25.46a8 8 0 0 0 12.261 0l21.348-25.46a8 8 0 0 0 1.794-6.24l-8.493-61.212a77.6 77.6 0 0 1 51.335 35.1 136.469 136.469 0 0 0-55.348 72.208Zm331.889 93.257h-43.2a7.969 7.969 0 0 0 1.815-5.075v-60.29a8 8 0 0 0-16 0V416.8a7.97 7.97 0 0 0 1.816 5.075H181.555a7.964 7.964 0 0 0 1.816-5.075v-60.29a8 8 0 0 0-16 0v60.29a7.97 7.97 0 0 0 1.816 5.075h-43.2v-51.564A120.02 120.02 0 0 1 229.5 251.585l-13.526 97.5a8 8 0 0 0 1.794 6.24l32.1 38.287a8 8 0 0 0 12.261 0l32.1-38.287a8 8 0 0 0 1.794-6.24l-13.527-97.5a120.02 120.02 0 0 1 103.517 118.726ZM496 328.617h-22.194c.019-.229.035-.459.035-.694v-40.091a8 8 0 0 0-16 0v40.091c0 .235.015.465.035.694h-62.418a136.475 136.475 0 0 0-55.347-72.208 77.592 77.592 0 0 1 51.334-35.1l-8.493 61.212a8 8 0 0 0 1.794 6.24l21.348 25.46a8 8 0 0 0 12.261 0l21.348-25.46a8 8 0 0 0 1.793-6.24L433 221.3a77.126 77.126 0 0 1 63 75.712Z" fill="currentColor" opacity="1" data-original="#000000"/></g></svg>