<svg xmlns="http://www.w3.org/2000/svg" version="1.1" xmlns:xlink="http://www.w3.org/1999/xlink" x="0" y="0" viewBox="0 0 512 512" style="enable-background:new 0 0 512 512" xml:space="preserve"><g><path d="m408.214 404.516 70.334-40.608a13.423 13.423 0 0 0 6.711-11.624V249.58c0-4.795-2.558-9.227-6.711-11.624l-95.656-55.227" style="stroke-width:15;stroke-linecap:round;stroke-linejoin:round;stroke-miterlimit:10;" fill="none" stroke="#000000" stroke-width="15" stroke-linecap="round" stroke-linejoin="round" stroke-miterlimit="10" data-original="#000000"/><path d="m415.624 359.966 30.796-17.78a7.927 7.927 0 0 0 3.963-6.864v-68.778a7.925 7.925 0 0 0-3.963-6.864l-59.564-34.389a7.925 7.925 0 0 0-7.926 0l-23.319 13.463M212.389 202.499l-34.23-19.77V72.28c0-4.8 2.56-9.23 6.71-11.63L273.818 9.3c4.15-2.4 9.27-2.4 13.42 0l88.939 51.35c4.16 2.4 6.72 6.83 6.72 11.63v19.66M382.898 126.939v55.79l-49.61 28.64" style="stroke-width:15;stroke-linecap:round;stroke-linejoin:round;stroke-miterlimit:10;" fill="none" stroke="#000000" stroke-width="15" stroke-linecap="round" stroke-linejoin="round" stroke-miterlimit="10" data-original="#000000"/><path d="m313.746 182.378 30.307-17.498a7.927 7.927 0 0 0 3.963-6.864V89.238a7.925 7.925 0 0 0-3.963-6.864l-59.564-34.389a7.925 7.925 0 0 0-7.926 0l-59.564 34.389a7.927 7.927 0 0 0-3.963 6.864v68.778a7.925 7.925 0 0 0 3.963 6.864l14.152 8.171" style="stroke-width:15;stroke-linecap:round;stroke-linejoin:round;stroke-miterlimit:10;" fill="none" stroke="#000000" stroke-width="15" stroke-linecap="round" stroke-linejoin="round" stroke-miterlimit="10" data-original="#000000"/><path d="M167.499 260.849c28.77-30.95 54.43-64.65 75.57-101.249l15.07-26.1c5.37-9.3 18.79-9.3 24.16 0l13.02 22.55c22.44 38.86 49.7 74.63 80.19 107.559 23.69 25.58 38.17 59.82 38.17 97.429 0 36.15-13.37 69.18-35.45 94.409M189.279 479.297c23.62 16.24 52.27 25.6 82.92 25.19 29.7-.4 57.21-9.83 79.93-25.66" style="stroke-width:15;stroke-linecap:round;stroke-linejoin:round;stroke-miterlimit:10;" fill="none" stroke="#000000" stroke-width="15" stroke-linecap="round" stroke-linejoin="round" stroke-miterlimit="10" data-original="#000000"/><path d="m86.589 276.968 52.89-30.54 112.739 65.09v130.179l-105.349 60.82a14.78 14.78 0 0 1-14.78 0l-97.949-56.56c-4.58-2.64-7.4-7.52-7.4-12.8V320.048c0-5.28 2.82-10.16 7.4-12.8l22.14-12.78" style="stroke-width:15;stroke-linecap:round;stroke-linejoin:round;stroke-miterlimit:10;" fill="none" stroke="#000000" stroke-width="15" stroke-linecap="round" stroke-linejoin="round" stroke-miterlimit="10" data-original="#000000"/><path d="M213.809 394.108v20.37c0 3.12-1.66 6-4.36 7.56l-65.6 37.87a8.727 8.727 0 0 1-8.73 0l-65.6-37.87a8.736 8.736 0 0 1-4.37-7.56v-75.74c0-3.12 1.67-6.01 4.37-7.56l65.6-37.88a8.727 8.727 0 0 1 8.73 0l65.6 37.88a8.714 8.714 0 0 1 4.36 7.56v20.37" style="stroke-width:15;stroke-linecap:round;stroke-linejoin:round;stroke-miterlimit:10;" fill="none" stroke="#000000" stroke-width="15" stroke-linecap="round" stroke-linejoin="round" stroke-miterlimit="10" data-original="#000000"/></g></svg>