<svg xmlns="http://www.w3.org/2000/svg" version="1.1" xmlns:xlink="http://www.w3.org/1999/xlink" x="0" y="0" viewBox="0 0 64 64" style="enable-background:new 0 0 512 512" xml:space="preserve"><g><path d="m61.637 30.161-13.32-11a1 1 0 0 0-1.637.771v6.083A21.061 21.061 0 0 0 37 29.219V17.321h6a1.001 1.001 0 0 0 .771-1.637l-11-13.321c-.38-.46-1.162-.46-1.542 0l-11 13.32A.999.999 0 0 0 21 17.32h6v22.369a22.352 22.352 0 0 0-9.68-3.719v-6.197a1.001 1.001 0 0 0-1.637-.771L2.363 40.001a1 1 0 0 0 0 1.542l13.32 11a1.001 1.001 0 0 0 1.637-.771v-5.634C22.913 47.487 27 52.569 27 58.406V61a1 1 0 0 0 1 1h8a1 1 0 0 0 1-1V47.219a11.265 11.265 0 0 1 9.68-11.157v5.87a1.001 1.001 0 0 0 1.637.771l13.32-11a1 1 0 0 0 0-1.542zM35 60h-6v-1.594c0-7.215-5.39-13.434-12.537-14.467a1.001 1.001 0 0 0-1.143.99v4.721L4.57 40.773l10.75-8.877v4.97a1 1 0 0 0 .91.996C26.755 38.809 35 47.833 35 58.407v1.594zm13.68-20.191v-4.846a.995.995 0 0 0-.311-.724 1.016 1.016 0 0 0-.739-.275c-7.083.349-12.631 6.171-12.631 13.255v2.017a23 23 0 0 0-6-8.001V16.32a1 1 0 0 0-1-1h-4.877l8.877-10.75 8.877 10.75h-4.877a1 1 0 0 0-1 1v14.811a1 1 0 0 0 1.607.794c3.238-2.473 7.078-3.843 11.103-3.963a1 1 0 0 0 .97-1v-4.909l10.75 8.877-10.75 8.877z" fill="#fff" opacity="1" data-original="#000000"/></g></svg>