<svg xmlns="http://www.w3.org/2000/svg" version="1.1" xmlns:xlink="http://www.w3.org/1999/xlink" xmlns:svgjs="http://svgjs.com/svgjs" x="0" y="0" viewBox="0 0 64 64" style="enable-background:new 0 0 512 512" xml:space="preserve"><g><g data-name="Layer 7"><path d="M63 36H29.936a8.934 8.934 0 0 0-4.322-6.717 2.774 2.774 0 0 1-1.188-1.446 8.979 8.979 0 0 0-1.676-2.785 1 1 0 0 0-1.5 1.322 7.011 7.011 0 0 1 1.3 2.159A4.749 4.749 0 0 0 24.585 31a6.953 6.953 0 0 1 3.339 5H4.076a6.953 6.953 0 0 1 3.339-5 4.738 4.738 0 0 0 2.03-2.456A7.043 7.043 0 0 1 16 24a6.966 6.966 0 0 1 1.75.221 1 1 0 0 0 .5-1.937 9.009 9.009 0 0 0-10.68 5.563 2.764 2.764 0 0 1-1.184 1.436A8.934 8.934 0 0 0 2.064 36H1a1 1 0 0 0-.986 1.165l2.443 14.657A4.984 4.984 0 0 0 7.389 56h15.222a4.984 4.984 0 0 0 4.932-4.178l.887-5.315A2.99 2.99 0 0 1 31.389 44H59a5.006 5.006 0 0 0 5-5v-2a1 1 0 0 0-1-1Zm-1 3a3 3 0 0 1-3 3H31.389a4.984 4.984 0 0 0-4.932 4.178l-.887 5.315A2.99 2.99 0 0 1 22.611 54H7.389a2.99 2.99 0 0 1-2.959-2.507L2.181 38H62Z" fill="currentColor" opacity="1" data-original="#000000"/><circle cx="9" cy="33" r="1" fill="currentColor" opacity="1" data-original="#000000"/><circle cx="13" cy="30" r="1" fill="currentColor" opacity="1" data-original="#000000"/><circle cx="17" cy="26" r="1" fill="currentColor" opacity="1" data-original="#000000"/><circle cx="19" cy="32" r="1" fill="currentColor" opacity="1" data-original="#000000"/><circle cx="24" cy="34" r="1" fill="currentColor" opacity="1" data-original="#000000"/><path d="M3 20h1v1a1 1 0 0 0 2 0v-1h1a1 1 0 0 0 0-2H6v-1a1 1 0 0 0-2 0v1H3a1 1 0 0 0 0 2ZM19 12h1v1a1 1 0 0 0 2 0v-1h1a1 1 0 0 0 0-2h-1V9a1 1 0 0 0-2 0v1h-1a1 1 0 0 0 0 2ZM27 24h1v1a1 1 0 0 0 2 0v-1h1a1 1 0 0 0 0-2h-1v-1a1 1 0 0 0-2 0v1h-1a1 1 0 0 0 0 2Z" fill="currentColor" opacity="1" data-original="#000000"/></g></g></svg>