<svg xmlns="http://www.w3.org/2000/svg" version="1.1" xmlns:xlink="http://www.w3.org/1999/xlink" x="0" y="0" viewBox="0 0 64 64" style="enable-background:new 0 0 512 512" xml:space="preserve"><g><path d="M32 11a21 21 0 1 0 21 21 21.024 21.024 0 0 0-21-21Zm16.727 30h-6.765a37.8 37.8 0 0 0 1.012-8h7.975a18.867 18.867 0 0 1-2.222 8Zm-35.676-8h7.975a37.8 37.8 0 0 0 1.012 8h-6.765a18.867 18.867 0 0 1-2.222-8Zm2.222-10h6.765a37.8 37.8 0 0 0-1.012 8h-7.975a18.867 18.867 0 0 1 2.222-8ZM33 21v-7.868c2.551.627 4.811 3.616 6.274 7.868Zm6.887 2a35.519 35.519 0 0 1 1.088 8H33v-8ZM31 13.132V21h-6.274c1.463-4.252 3.723-7.241 6.274-7.868ZM31 23v8h-7.975a35.519 35.519 0 0 1 1.088-8Zm-7.975 10H31v8h-6.887a35.519 35.519 0 0 1-1.088-8ZM31 43v7.868c-2.551-.627-4.811-3.616-6.274-7.868Zm2 7.868V43h6.274c-1.463 4.252-3.723 7.241-6.274 7.868ZM33 41v-8h7.975a35.519 35.519 0 0 1-1.088 8Zm9.974-10a37.8 37.8 0 0 0-1.012-8h6.765a18.867 18.867 0 0 1 2.222 8Zm4.489-10H41.4a19.453 19.453 0 0 0-3.823-7.161A19.062 19.062 0 0 1 47.463 21Zm-21.044-7.161A19.453 19.453 0 0 0 22.6 21h-6.063a19.062 19.062 0 0 1 9.882-7.161ZM16.537 43H22.6a19.453 19.453 0 0 0 3.823 7.161A19.062 19.062 0 0 1 16.537 43Zm21.044 7.161A19.453 19.453 0 0 0 41.4 43h6.059a19.062 19.062 0 0 1-9.878 7.161Z" fill="#fff" opacity="1" data-original="#000000"/><path d="M32 3a2.993 2.993 0 0 0-2.866 2.162 27 27 0 0 0-3.363 53.116 1.032 1.032 0 0 0 1.2-.744 1 1 0 0 0-.745-1.2 25 25 0 0 1 3.009-49.172A3 3 0 1 0 32 3Zm0 4a1 1 0 1 1 1-1 1 1 0 0 1-1 1ZM59 32A26.891 26.891 0 0 0 38.229 5.722a1 1 0 1 0-.458 1.947 25 25 0 0 1-3.006 49.169 3.019 3.019 0 1 0 .1 2A27.031 27.031 0 0 0 59 32ZM32 59a1 1 0 1 1 1-1 1 1 0 0 1-1 1Z" fill="#fff" opacity="1" data-original="#000000"/></g></svg>