<svg xmlns="http://www.w3.org/2000/svg" version="1.1" xmlns:xlink="http://www.w3.org/1999/xlink" x="0" y="0" viewBox="0 0 512 512" style="enable-background:new 0 0 512 512" xml:space="preserve"><g><path d="M64.885 140.822c-16.698 29.561-26.228 63.708-26.228 100.081 0 112.546 91.237 203.782 203.782 203.782s203.782-91.237 203.782-203.782c0-40.798-11.989-78.796-32.636-110.662M352.999 69.691c-31.845-20.606-69.805-32.57-110.559-32.57-43.709 0-84.205 13.761-117.39 37.188" style="stroke-width:20;stroke-linecap:round;stroke-linejoin:round;stroke-miterlimit:10;" fill="none" stroke="#fff" stroke-width="20" stroke-linecap="round" stroke-linejoin="round" stroke-miterlimit="10" data-original="#fff"/><circle cx="242.439" cy="240.904" r="144.346" style="stroke-width:20;stroke-linecap:round;stroke-linejoin:round;stroke-miterlimit:10;" fill="none" stroke="#fff" stroke-width="20" stroke-linecap="round" stroke-linejoin="round" stroke-miterlimit="10" data-original="#fff"/><circle cx="242.439" cy="240.904" r="93.4" style="stroke-width:20;stroke-linecap:round;stroke-linejoin:round;stroke-miterlimit:10;" fill="none" stroke="#fff" stroke-width="20" stroke-linecap="round" stroke-linejoin="round" stroke-miterlimit="10" data-original="#fff"/><circle cx="242.439" cy="240.904" r="42.455" style="stroke-width:20;stroke-linecap:round;stroke-linejoin:round;stroke-miterlimit:10;" fill="none" stroke="#fff" stroke-width="20" stroke-linecap="round" stroke-linejoin="round" stroke-miterlimit="10" data-original="#fff"/><path d="m242.439 240.904 102.068-102.068M344.507 78.796v60.04l68.796-68.796V10z" style="stroke-width:20;stroke-linecap:round;stroke-linejoin:round;stroke-miterlimit:10;" fill="none" stroke="#fff" stroke-width="20" stroke-linecap="round" stroke-linejoin="round" stroke-miterlimit="10" data-original="#fff"/><path d="M404.547 138.836h-60.04l68.796-68.796h60.04zM329.151 426.073 372.987 502h73.235l-64.494-111.706M155.46 426.537 111.891 502H38.657l64.18-111.164M91.365 104.142h0" style="stroke-width:20;stroke-linecap:round;stroke-linejoin:round;stroke-miterlimit:10;" fill="none" stroke="#fff" stroke-width="20" stroke-linecap="round" stroke-linejoin="round" stroke-miterlimit="10" data-original="#fff"/></g></svg>