<svg xmlns="http://www.w3.org/2000/svg" version="1.1" xmlns:xlink="http://www.w3.org/1999/xlink" x="0" y="0" viewBox="0 0 512 512" style="enable-background:new 0 0 512 512" xml:space="preserve"><g><path d="M496.318 488.305h-13.185v-27.858a8.002 8.002 0 0 0-6.984-7.936l-50.309-6.438a157.45 157.45 0 0 0-8.395-20.268l31.021-40.124a8 8 0 0 0-.672-10.55l-50.712-50.714a8.001 8.001 0 0 0-10.551-.672l-40.125 31.021a157.638 157.638 0 0 0-20.267-8.395l-6.438-50.309a8 8 0 0 0-7.936-6.984H240.05a8.002 8.002 0 0 0-7.936 6.984l-6.438 50.309a157.53 157.53 0 0 0-20.267 8.395l-40.125-31.021a8.001 8.001 0 0 0-10.551.672L104.02 375.13a8.002 8.002 0 0 0-.672 10.551l31.021 40.124a157.957 157.957 0 0 0-8.396 20.268l-50.308 6.438a8 8 0 0 0-6.984 7.936v27.858H55.499a8 8 0 0 0 0 16h440.819a8 8 0 0 0 0-16zM84.684 467.487l48.392-6.192a7.999 7.999 0 0 0 6.65-5.648 141.534 141.534 0 0 1 11.137-26.881 8.001 8.001 0 0 0-.706-8.702l-29.842-38.598 40.755-40.755 38.599 29.841a7.996 7.996 0 0 0 8.7.706 141.564 141.564 0 0 1 26.881-11.134 8.001 8.001 0 0 0 5.65-6.651l6.192-48.393h57.635l6.192 48.393a8 8 0 0 0 5.65 6.651 141.506 141.506 0 0 1 26.88 11.134 8 8 0 0 0 8.701-.706l38.598-29.841 40.754 40.755-29.841 38.599a7.998 7.998 0 0 0-.706 8.701 141.48 141.48 0 0 1 11.135 26.879 8.001 8.001 0 0 0 6.651 5.65l48.393 6.192v20.817h-80.421c-4.114-57.538-52.237-103.095-110.804-103.095-58.566 0-106.689 45.557-110.803 103.095H84.684zm285.979 20.818H181.154c4.076-48.706 45.014-87.095 94.754-87.095 49.741 0 90.679 38.389 94.755 87.095zM511.728 17.766l-54.795 204.499a8 8 0 0 1-13.385 3.587l-45.445-45.446-92.33 92.332a8 8 0 0 1-11.314-11.314l97.987-97.988a8.002 8.002 0 0 1 11.314 0l41.304 41.305 47.623-177.73-177.73 47.622 41.305 41.305a8 8 0 0 1 0 11.314L245.707 237.805a8.002 8.002 0 0 1-11.271.043l-75.145-74.001L19.313 303.825l36.186 36.186 98.455-98.456a8.002 8.002 0 0 1 11.271-.043l50.244 49.479a8 8 0 0 1-11.226 11.4l-44.588-43.909-98.498 98.499c-1.563 1.562-3.609 2.343-5.657 2.343s-4.095-.781-5.657-2.343l-47.5-47.499a8 8 0 0 1 0-11.314l151.249-151.249a8.002 8.002 0 0 1 11.271-.043l75.145 74.001 99.283-99.284-45.446-45.445a8 8 0 0 1 3.587-13.385L501.93 7.968a8.003 8.003 0 0 1 7.728 2.07 8.005 8.005 0 0 1 2.07 7.728z" fill="#fff" opacity="1" data-original="#000000"/></g></svg>