<svg xmlns="http://www.w3.org/2000/svg" version="1.1" xmlns:xlink="http://www.w3.org/1999/xlink" xmlns:svgjs="http://svgjs.com/svgjs" x="0" y="0" viewBox="0 0 512 512" style="enable-background:new 0 0 512 512" xml:space="preserve"><g><path d="M138.124 386.317c-14.107 0-25.585 11.478-25.585 25.585s11.478 25.585 25.585 25.585 25.585-11.478 25.585-25.585-11.478-25.585-25.585-25.585zm0 35.17c-5.285 0-9.585-4.3-9.585-9.585s4.3-9.585 9.585-9.585 9.585 4.3 9.585 9.585-4.3 9.585-9.585 9.585zm202.746-35.17c-14.107 0-25.585 11.478-25.585 25.585s11.478 25.585 25.585 25.585 25.585-11.478 25.585-25.585-11.477-25.585-25.585-25.585zm0 35.17c-5.285 0-9.585-4.3-9.585-9.585s4.3-9.585 9.585-9.585 9.585 4.3 9.585 9.585-4.3 9.585-9.585 9.585zm120.543-233.708a8 8 0 0 0 5.126-7.466v-20.299a8 8 0 0 0-5.126-7.466l-8.637-3.324a71.91 71.91 0 0 0-5.473-13.203l3.759-8.464a8 8 0 0 0-1.654-8.904L435.055 104.3a7.997 7.997 0 0 0-8.904-1.654l-8.468 3.761a71.85 71.85 0 0 0-13.197-5.472l-3.326-8.641a8 8 0 0 0-7.466-5.126h-20.299a8 8 0 0 0-7.466 5.126l-3.325 8.64a71.792 71.792 0 0 0-13.197 5.472l-8.469-3.761a8.002 8.002 0 0 0-8.904 1.655l-14.353 14.354a8 8 0 0 0-1.654 8.904l3.76 8.466a71.91 71.91 0 0 0-5.472 13.199l-8.639 3.325a8 8 0 0 0-5.127 7.466v20.299a8 8 0 0 0 5.126 7.466l8.638 3.325a71.814 71.814 0 0 0 5.473 13.202l-3.759 8.463a8 8 0 0 0 1.654 8.904l14.354 14.354a8 8 0 0 0 8.904 1.655l8.468-3.761a71.85 71.85 0 0 0 13.197 5.472l3.325 8.64a8 8 0 0 0 7.466 5.126h20.3a8 8 0 0 0 7.466-5.126l3.324-8.637a71.814 71.814 0 0 0 13.202-5.473l8.464 3.759a8.003 8.003 0 0 0 8.904-1.655l14.354-14.354a8 8 0 0 0 1.654-8.904l-3.761-8.468a71.821 71.821 0 0 0 5.472-13.197zm-10.874-12.959-7.302 2.811a8.002 8.002 0 0 0-4.909 5.614 55.855 55.855 0 0 1-6.798 16.397 8.001 8.001 0 0 0-.5 7.442l3.18 7.159-6.585 6.585-7.155-3.178a7.999 7.999 0 0 0-7.442.5 55.909 55.909 0 0 1-16.402 6.8 7.998 7.998 0 0 0-5.614 4.909l-2.81 7.299h-9.313l-2.811-7.302a8 8 0 0 0-5.613-4.909 55.907 55.907 0 0 1-16.399-6.799 8.003 8.003 0 0 0-7.441-.5l-7.159 3.18-6.585-6.586 3.178-7.154a8.001 8.001 0 0 0-.5-7.442 55.96 55.96 0 0 1-6.801-16.403 7.998 7.998 0 0 0-4.908-5.614l-7.299-2.81v-9.313l7.3-2.81a8 8 0 0 0 4.909-5.614 55.975 55.975 0 0 1 6.8-16.401 8.001 8.001 0 0 0 .5-7.442l-3.179-7.157 6.585-6.585 7.159 3.18a8.005 8.005 0 0 0 7.442-.5 55.906 55.906 0 0 1 16.398-6.799 8 8 0 0 0 5.613-4.909l2.811-7.302h9.313l2.811 7.302a8.002 8.002 0 0 0 5.613 4.909 55.907 55.907 0 0 1 16.399 6.799 7.996 7.996 0 0 0 7.441.499l7.159-3.179 6.585 6.585-3.178 7.155a8.001 8.001 0 0 0 .5 7.442 55.903 55.903 0 0 1 6.799 16.403 8 8 0 0 0 4.909 5.615l7.299 2.81zm-66.995-48.057c-23.931 0-43.4 19.47-43.4 43.401s19.47 43.4 43.4 43.4c23.932 0 43.401-19.469 43.401-43.4s-19.469-43.401-43.401-43.401zm0 70.801c-15.108 0-27.4-12.292-27.4-27.4s12.292-27.401 27.4-27.401c15.109 0 27.401 12.292 27.401 27.401s-12.292 27.4-27.401 27.4zm120.455-27.4c0-21.306-5.64-42.247-16.311-60.56a8 8 0 0 0-13.824 8.054c9.247 15.871 14.135 34.026 14.135 52.505 0 57.597-46.858 104.455-104.455 104.455-18.537 0-36.681-4.967-52.537-14.189 3.437-.999 5.895-4.221 5.761-7.96-.158-4.416-3.866-7.87-8.282-7.708l-20.733.745a8 8 0 0 0-7.407 10.19l5.692 19.95a8.004 8.004 0 0 0 7.689 5.807 8 8 0 0 0 8.001-7.915c18.574 11.099 39.961 17.08 61.815 17.08 12.47 0 24.503-1.905 35.825-5.439l-24.25 78.622c-2.352 7.626-6.166 14.557-11.203 20.451-9.118-14.146-25-23.54-43.045-23.54-25.505 0-46.708 18.751-50.561 43.19H188.685c-3.853-24.439-25.056-43.19-50.561-43.19-18.045 0-33.927 9.394-43.045 23.54-5.037-5.893-8.851-12.824-11.204-20.451l-44.544-144.42h234.273a119.48 119.48 0 0 0 6.588 12.67 7.994 7.994 0 0 0 10.975 2.744 8 8 0 0 0 2.743-10.976c-9.696-16.16-14.821-34.714-14.821-53.656 0-57.597 46.858-104.455 104.455-104.455 18.582 0 36.694 4.962 52.542 14.187-3.439.997-5.899 4.221-5.766 7.962a8 8 0 0 0 8.282 7.708l20.733-.745a8 8 0 0 0 7.407-10.19l-5.692-19.95c-1.214-4.249-5.642-6.714-9.889-5.498-3.483.994-5.761 4.15-5.802 7.596a120.46 120.46 0 0 0-61.815-17.07c-49.085 0-91.4 29.515-110.147 71.727h-25.876V63.449c0-8.018-6.523-14.541-14.541-14.541h-65.492c-8.019 0-14.542 6.523-14.542 14.541v37.242H133.95c-5.956 0-11.081 3.602-13.326 8.739l-9.121-15.799a14.442 14.442 0 0 0-8.832-6.768 14.454 14.454 0 0 0-11.031 1.445l-56.72 32.748c-6.943 4.009-9.33 12.919-5.321 19.863l14.434 25.001H16.001a8 8 0 0 0-8 8v37.461a8 8 0 0 0 8 8h6.586l45.999 149.136c3.786 12.272 10.549 23.156 19.694 31.767a51.142 51.142 0 0 0-1.346 11.617c0 28.226 22.964 51.19 51.189 51.19 25.505 0 46.708-18.751 50.561-43.19h101.624c3.853 24.439 25.056 43.19 50.561 43.19 28.226 0 51.189-22.964 51.189-51.19a51.15 51.15 0 0 0-1.346-11.618c9.146-8.611 15.909-19.495 19.693-31.766l28.131-91.204c38.841-20.015 65.463-60.531 65.463-107.149zm-240.827-4.244h-49.189v-28.485h53.627a119.905 119.905 0 0 0-4.438 28.485zM168.945 64.908h62.575v56.527h-17.538v-6.203c0-8.018-6.523-14.541-14.541-14.541h-30.496zm29.037 51.783v49.229h-62.575v-49.229zM44.184 134.183l54.191-31.288 21.032 36.431v26.595h-56.9zM24.001 181.92h239.668a120.481 120.481 0 0 0 4.092 21.461H24.001zm114.123 265.172c-19.403 0-35.189-15.786-35.189-35.19s15.786-35.19 35.189-35.19c19.404 0 35.19 15.786 35.19 35.19s-15.786 35.19-35.19 35.19zm202.746 0c-19.404 0-35.19-15.786-35.19-35.19s15.786-35.19 35.19-35.19c19.403 0 35.189 15.786 35.189 35.19s-15.786 35.19-35.189 35.19z" fill="currentColor" data-original="#000000"/></g></svg>