<svg xmlns="http://www.w3.org/2000/svg"  version="1.1" xmlns:xlink="http://www.w3.org/1999/xlink" xmlns:svgjs="http://svgjs.com/svgjs" x="0" y="0" viewBox="0 0 66 66" style="enable-background:new 0 0 512 512" xml:space="preserve"><g><path d="M38.11 49.79c.27-.14.56-.28.83-.46 1.3-.88 1.89-2.6 1.41-4.09-.43-1.34-1.57-2.21-2.39-2.75-1.43-.94-2.99-1.63-4.64-2.05l-.23-.06c-.42-.11-.82-.21-1.12-.39-.46-.28-.74-.79-1.07-1.38s-.71-1.26-1.33-1.77c-.58-.48-1.14-.5-1.55-.52-.11 0-.22-.01-.35-.03-.31-.05-.54-.2-.92-.46-.24-.16-.51-.35-.83-.51-1.38-.68-2.9.01-3.71.38l-1.37.62c-.46.21-1.42.65-1.71 1.62-.2.66 0 1.27.15 1.72.07.22.16.47.14.59-.02.18-.32.43-.61.68-.3.25-.64.54-.91.92-.84 1.19-.55 2.75.09 3.77.62.98 1.55 1.63 2.37 2.21l2.42 1.7c.37.26.73.51.95.8.56.72.5 1.83.44 3.01-.08 1.38-.16 2.95.78 4.23.26.34.56.62.82.86.24.22.47.43.62.65.43.64 1.93 2.18 3.04 2.18h.1c.43-.04.78-.29.95-.68 1.12-2.62 3.52-4.69 6.29-5.42.25-.07.64-.17.96-.48.36-.35.53-.86.49-1.45-.06-.68-.36-1.25-.63-1.75-.27-.51-.44-.86-.37-1.07.1-.23.49-.42.89-.62zm-2.64-.04c-.37 1.02.1 1.9.48 2.6.18.33.35.65.4.96-.01 0-.03.01-.05.01-3.05.8-5.74 2.99-7.19 5.8-.38-.28-.87-.73-1.13-1.1-.27-.41-.61-.72-.91-.99-.22-.2-.43-.4-.58-.59-.54-.73-.48-1.83-.42-3 .08-1.41.16-3-.83-4.28-.4-.52-.91-.87-1.36-1.19l-2.42-1.7c-.71-.49-1.44-1.01-1.86-1.67-.31-.49-.46-1.22-.14-1.67.13-.18.34-.36.58-.56.51-.43 1.15-.96 1.27-1.87.07-.56-.09-1.05-.22-1.44-.07-.2-.16-.48-.13-.58.02-.06.13-.19.69-.44l1.35-.62c.55-.25 1.15-.5 1.64-.5.17 0 .32.03.46.09.22.11.4.24.59.37.43.3.96.67 1.72.78.19.03.37.04.54.04.32.01.35.02.43.09.35.29.61.75.89 1.24.4.71.85 1.52 1.72 2.06.55.34 1.14.48 1.66.61l.22.06c1.45.37 2.82.98 4.07 1.8.92.6 1.44 1.16 1.63 1.75.22.69-.08 1.55-.68 1.96-.19.13-.4.23-.61.34-.66.31-1.47.72-1.81 1.64zM48.73 31.93c.18.16.4.24.62.24s.45-.08.62-.24c.12-.11 2.97-2.64 5.62-6.57 2.95-4.36 4.44-8.61 4.44-12.65 0-5.89-4.79-10.67-10.68-10.67-5.88 0-10.67 4.79-10.67 10.67v.11c.02 3.06.92 6.3 2.67 9.62 2.94 5.53 7.2 9.33 7.38 9.49zm-8.16-19.22c0-4.85 3.94-8.79 8.79-8.79s8.8 3.94 8.8 8.79c0 3.65-1.39 7.56-4.12 11.6a36.627 36.627 0 0 1-4.68 5.62c-1.27-1.25-4.21-4.36-6.33-8.37-1.61-3.05-2.44-5.99-2.45-8.74v-.11z" fill="currentColor" data-original="#000000"/><path d="M49.8 19.53c3.14 0 5.69-2.56 5.69-5.69s-2.55-5.69-5.69-5.69-5.69 2.56-5.69 5.69 2.55 5.69 5.69 5.69zm0-9.5c2.1 0 3.81 1.71 3.81 3.81s-1.71 3.81-3.81 3.81-3.81-1.71-3.81-3.81 1.71-3.81 3.81-3.81zM56.3 27.89c-.49.18-.74.72-.57 1.21.96 2.68 1.45 5.48 1.45 8.32 0 8.99-4.83 17.15-12.65 21.51-.19-.33-.32-.68-.37-1.04-.14-1.04 1.71-3.94 2.59-5.33.93-1.46 1.18-1.85 1.11-2.37-.05-.34-.12-.85-.53-1.26-.53-.53-1.21-.52-1.66-.5h-.15c-1.45-.01-2.56-1.69-2.58-3.2-.01-.33.03-.56.12-.72.05-.09.18-.22.32-.35.09-.09.18-.17.24-.25 1.45-1.48 1.82-3.98.93-6.21-.81-2.03-2.42-3.55-3.73-4.65l-1.02-.84c-1.1-.89-2.14-1.73-3-2.76-.66-.77-1.04-1.51-1.13-2.19-.15-1.17.55-2.48 1.76-3.26.33-.21.7-.39 1.14-.55.49-.17.75-.71.57-1.21a.942.942 0 0 0-1.21-.57 7.5 7.5 0 0 0-1.53.74c-1.83 1.19-2.85 3.19-2.6 5.09.14 1.06.65 2.1 1.56 3.16.97 1.16 2.13 2.1 3.25 3.01.33.27.67.54.99.81 1.14.96 2.53 2.27 3.19 3.91.61 1.53.4 3.25-.54 4.21-.06.07-.13.13-.2.2-.21.21-.46.45-.64.76-.27.46-.39 1.01-.37 1.69.03 2.43 1.83 5.04 4.46 5.05H45.91c-.16.29-.49.81-.77 1.24-1.7 2.66-3.08 4.99-2.87 6.59.08.59.28 1.14.56 1.66a24.58 24.58 0 0 1-10.34 2.29c-13.6 0-24.66-11.06-24.66-24.66 0-.36.01-.72.03-1.08 1.37.58 2.84.87 4.32.87.5 0 1-.03 1.5-.1 1.56-.22 2.58-1.1 2.6-2.25.02-.89-.56-1.5-.98-1.94-.19-.2-.47-.49-.47-.64 0 0 0-.15.37-.5s1.33-1.15 2.3-.98c.34.06.71.24 1.09.43.28.14.56.28.85.39 1.05.4 2.44.36 3.2-.63.52-.68.5-1.46.49-2.09 0-.16-.01-.32 0-.46.09-1.49 1.62-2.63 2.53-3.18 1.29-.79 2.7-1.37 4.19-1.73.23-.06.46-.1.7-.16.89-.19 1.81-.39 2.68-.85 2.26-1.2 3.43-4.07 2.66-6.52-.13-.4-.29-.76-.45-1.11-.11-.25-.23-.5-.32-.75-.14-.4-.21-.82-.23-1.25.26.03.54.06.84.1.51.07.99-.3 1.06-.81.07-.52-.3-.99-.81-1.06-.73-.09-1.34-.15-1.9-.19-.53-.04-1.07-.06-1.6-.06A26.412 26.412 0 0 0 6.1 34.77c-.09.9-.14 1.79-.14 2.65 0 14.64 11.91 26.55 26.55 26.55 4.26 0 8.47-1.03 12.18-2.97a26.442 26.442 0 0 0 14.37-23.58c0-3.06-.52-6.08-1.56-8.96a.932.932 0 0 0-1.2-.57zM32.51 12.74c.17 0 .35.01.53.02.01.68.11 1.35.34 2 .11.31.24.6.37.9.14.31.28.61.37.9.5 1.59-.29 3.51-1.75 4.29-.64.34-1.39.5-2.19.67-.25.05-.5.11-.74.16-1.67.4-3.27 1.06-4.73 1.95-1.49.9-3.29 2.45-3.43 4.69-.01.2-.01.4 0 .6.01.37.01.75-.1.91-.11.15-.56.19-1.03.01-.23-.09-.46-.2-.69-.31-.47-.23-1-.49-1.61-.6-1.3-.21-2.68.31-3.91 1.47-.25.23-1 .95-.96 1.93.02.86.58 1.45.99 1.88.19.19.46.49.46.6 0 .07-.34.34-.98.43-1.84.25-3.73-.07-5.39-.9 1.52-12.36 11.92-21.6 24.45-21.6z" fill="currentColor" data-original="#000000"/></g></svg>