<svg xmlns="http://www.w3.org/2000/svg" version="1.1" xmlns:xlink="http://www.w3.org/1999/xlink" xmlns:svgjs="http://svgjs.com/svgjs" x="0" y="0" viewBox="0 0 512 512" style="enable-background:new 0 0 512 512" xml:space="preserve"><g><path d="M345.993 161.056A89.993 89.993 0 1 0 256 251.048a90.1 90.1 0 0 0 89.993-89.992zm-147.985 0A57.993 57.993 0 1 1 256 219.048a58.058 58.058 0 0 1-57.992-57.992zm48.125 259.492a16 16 0 0 0 19.888 0c72.743-57.709 151.035-163.528 151.035-259.492C417.056 72.25 344.807 0 256 0S94.944 72.25 94.944 161.056c0 45.143 17.274 95.941 49.952 146.9 26.773 41.753 63.672 82.79 101.237 112.592zM256 32a129.2 129.2 0 0 1 129.056 129.056c0 77.633-63.338 170.275-128.985 226.245C192.1 332.882 126.944 242.1 126.944 161.056A129.2 129.2 0 0 1 256 32zm233.364 395.446c0 18.306-12.986 44.223-74.852 63.735C371.942 504.606 315.648 512 256 512s-115.942-7.394-158.512-20.819c-61.866-19.512-74.852-45.429-74.852-63.735 0-31.511 37.865-57.111 106.619-72.081a16 16 0 1 1 6.808 31.268c-59.321 12.916-81.427 31.888-81.427 40.813 0 5.764 10.968 20.124 52.477 33.216C146.652 473.132 199.528 480 256 480s109.348-6.868 148.887-19.338c41.509-13.092 52.477-27.452 52.477-33.216 0-8.925-22.106-27.9-81.428-40.816a16 16 0 0 1 6.808-31.268c68.756 14.97 106.62 40.571 106.62 72.084z" fill="currentColor" data-original="#000000"/></g></svg>