<svg xmlns="http://www.w3.org/2000/svg" version="1.1" xmlns:xlink="http://www.w3.org/1999/xlink" x="0" y="0" viewBox="0 0 61 61" style="enable-background:new 0 0 512 512" xml:space="preserve"><g><g fill="#000" fill-rule="evenodd"><path fill-rule="nonzero" d="M25 50a24.868 24.868 0 0 0 15.421-5.345l3.6 3.6a3.958 3.958 0 0 0 1.147 2.568l8 8a4 4 0 1 0 5.656-5.656l-8-8a3.934 3.934 0 0 0-2.524-1.101l-3.645-3.645c7.176-9.162 7.076-22.065-.241-31.115C37.097.256 24.5-2.544 14.039 2.556 3.578 7.653-1.978 19.3.641 30.638 3.261 41.979 13.362 50.007 25 50zm32.414 4.586a2 2 0 0 1 0 2.828 2.047 2.047 0 0 1-2.828 0l-8-8a2 2 0 1 1 2.828-2.828zm-11.432-10.01a3.743 3.743 0 0 0-.81.6c-.233.24-.435.51-.6.8l-2.622-2.62c.487-.45.955-.919 1.406-1.406zM25 2c12.703 0 23 10.297 23 23S37.703 48 25 48 2 37.703 2 25C2.014 12.303 12.303 2.014 25 2z" fill="#fff" opacity="1" data-original="#fff"/><path fill-rule="nonzero" d="M25 46c11.598 0 21-9.402 21-21S36.598 4 25 4 4 13.402 4 25c.013 11.592 9.408 20.987 21 21zm0-40c10.493 0 19 8.507 19 19s-8.507 19-19 19S6 35.493 6 25c.012-10.489 8.511-18.988 19-19z" fill="#fff" opacity="1" data-original="#fff"/><path d="M15 35h21a1 1 0 0 0 0-2H15V16a1 1 0 0 0-2 0v17a2 2 0 0 0 2 2z" fill="#fff" opacity="1" data-original="#fff"/><path d="M18 31a1 1 0 0 0 1-1v-4a1 1 0 0 0-2 0v4a1 1 0 0 0 1 1zM21 24v4a1 1 0 0 0 2 0v-4a1 1 0 0 0-2 0zM25 26v4a1 1 0 0 0 2 0v-4a1 1 0 0 0-2 0zM29 24v4a1 1 0 0 0 2 0v-4a1 1 0 0 0-2 0zM33 26v4a1 1 0 0 0 2 0v-4a1 1 0 0 0-2 0z" fill="#fff" opacity="1" data-original="#fff"/><path d="M18 23c.216 0 .427-.07.6-.2l3.4-2.55 2.906 2.179c.605.457 1.417.53 2.094.189l3-1.5 2.908 1.454a2 2 0 0 0 2.309-.375l1.49-1.49a1 1 0 0 0-1.414-1.414l-1.49 1.49-2.903-1.454a2.012 2.012 0 0 0-1.79 0l-3 1.5-2.91-2.178a2.01 2.01 0 0 0-2.4 0L17.4 21.2A1 1 0 0 0 18 23z" fill="#fff" opacity="1" data-original="#fff"/></g></g></svg>