<svg xmlns="http://www.w3.org/2000/svg" version="1.1" xmlns:xlink="http://www.w3.org/1999/xlink" x="0" y="0" viewBox="0 0 100 100" style="enable-background:new 0 0 512 512" xml:space="preserve" class=""><g><path d="M25 20.08a1.48 1.48 0 0 0-.54 1.08 1.5 1.5 0 0 0 .44 1.13l6.82 6.82a6.83 6.83 0 0 0-.15 1.44 7 7 0 0 0 2.31 5.2l-.69 1.19-11.42-11.41a1.52 1.52 0 0 0-1.14-.44 1.54 1.54 0 0 0-1.09.56 38.94 38.94 0 0 0 2.88 51.93 38.94 38.94 0 0 0 51.93 2.88 1.54 1.54 0 0 0 .56-1.09 1.52 1.52 0 0 0-.44-1.14l-6.57-6.57a7 7 0 0 0-2-7.53l.31-.54 11.5 11.52a1.5 1.5 0 0 0 1.06.44h.06a1.48 1.48 0 0 0 1.09-.55A39 39 0 0 0 25 20.08zm29.16 12a7.05 7.05 0 0 0 2.18 3.81l-2.25 3.89a11.1 11.1 0 0 0-8.4 0l-2.32-4a6.94 6.94 0 0 0 2.13-3.68zm6.91 2.65a4 4 0 1 1 4-4.05 4.06 4.06 0 0 1-4.01 4.02zm0 3a7 7 0 0 0 2.2-.36l4.26 7.36a7.08 7.08 0 0 0-2.29 3.82h-4.4a11.16 11.16 0 0 0-4.16-7.25l2.25-3.91a6.85 6.85 0 0 0 2.13.31zm7 12.33a4 4 0 1 1 4.05 4A4.05 4.05 0 0 1 68.07 50zm-11.6 14.16A7.09 7.09 0 0 0 54.33 68h-8.64a7 7 0 0 0-2.18-3.86l2.19-3.81a11 11 0 0 0 8.45-.06zm4.75 1.14a4 4 0 1 1-4 4 4.05 4.05 0 0 1 4-4zm-22.44-.1a4 4 0 1 1-4.05 4 4 4 0 0 1 4.05-4zm0-3a7.09 7.09 0 0 0-2.36.41l-4.13-7.15a7 7 0 0 0 2.48-4h4.09a11.09 11.09 0 0 0 4.24 7.28l-2.19 3.79a6.83 6.83 0 0 0-2.13-.33zM31.93 50a4 4 0 1 1-4.05-4 4 4 0 0 1 4.05 4zm17.91 8.1a8.1 8.1 0 1 1 8.1-8.1 8.1 8.1 0 0 1-8.1 8.1zM38.61 34.59a4 4 0 1 1 4-4 4.05 4.05 0 0 1-4 4zm-2.14 2.67a7.15 7.15 0 0 0 2.14.33 7 7 0 0 0 2.16-.34l2.32 4a11.08 11.08 0 0 0-4.23 7.29h-4.1a7 7 0 0 0-2.49-4zm29.82 37 4.85 4.85a36 36 0 0 1-46.6-3.68 36 36 0 0 1-3.68-46.6l10.77 10.8-2.06 3.57a6.69 6.69 0 0 0-1.69-.2 7 7 0 0 0 0 14.09 6.93 6.93 0 0 0 1.72-.22l4.27 7.4A7 7 0 1 0 45.62 71h8.74a7 7 0 0 0 11.93 3.33zm-3-11.63a7.31 7.31 0 0 0-2.05-.3 7 7 0 0 0-2.16.34l-2.34-4a11.08 11.08 0 0 0 4.1-7.17h4.41a7 7 0 0 0 2.27 3.82zm15.36 9.17-10.9-10.9 2.37-4.12a7 7 0 0 0 2 .29 7 7 0 1 0-2-13.8l-4.31-7.46a7 7 0 1 0-11.61-6.76h-8.71a7 7 0 0 0-12.43-2.83l-4.86-4.87A36 36 0 0 1 78.65 71.8zm-59-57c-.86.74-1.71 1.53-2.53 2.35a42.18 42.18 0 0 0-2.89 3.18 46.48 46.48 0 0 0 65.46 65.45 42.66 42.66 0 0 0 3.19-2.9c.81-.81 1.6-1.67 2.35-2.53a46.5 46.5 0 0 0-65.58-65.58zM83 78.39c-.69.81-1.43 1.61-2.19 2.37-1 1-2 1.88-3 2.71a43.5 43.5 0 0 1-61.27-61.26c.82-1 1.73-2 2.7-3 .76-.76 1.56-1.5 2.37-2.19A43.49 43.49 0 0 1 83 78.39z" data-name="Layer 9 copy" fill="#fff" opacity="1" data-original="#000000"/></g></svg>