<svg xmlns="http://www.w3.org/2000/svg" version="1.1" xmlns:xlink="http://www.w3.org/1999/xlink" xmlns:svgjs="http://svgjs.com/svgjs" x="0" y="0" viewBox="0 0 512 512" style="enable-background:new 0 0 512 512" xml:space="preserve" class=""><g><path d="M479.385 293.544a140.403 140.403 0 0 0-13.589-14.055c7.925-11.794 12.568-25.97 12.568-41.216 0-11.91-2.911-23.771-8.418-34.3a7.501 7.501 0 0 0-13.292 6.952c4.453 8.512 6.71 17.713 6.71 27.348a58.746 58.746 0 0 1-9.278 31.754 140.4 140.4 0 0 0-11.282-7.37 45.34 45.34 0 0 0 7.091-24.385c0-25.171-20.478-45.649-45.649-45.649a45.304 45.304 0 0 0-20.619 4.945V182.87a58.808 58.808 0 0 1 20.619-3.717 58.947 58.947 0 0 1 31.277 8.958 7.5 7.5 0 1 0 7.95-12.72 73.923 73.923 0 0 0-39.228-11.239 73.706 73.706 0 0 0-20.619 2.946v-58.099c13.468-.102 24.394-11.085 24.394-24.577 0-13.549-11.019-24.573-24.567-24.581l10.848-37.311a12.848 12.848 0 0 0-2.08-11.394 12.846 12.846 0 0 0-10.361-5.178h-92.219c-4.137 0-7.926 1.904-10.395 5.223s-3.203 7.495-2.014 11.457l11.167 37.203h-29.442a12.64 12.64 0 0 0-11.232 6.8 12.642 12.642 0 0 0 .818 13.105l10.351 14.911a33.39 33.39 0 0 0 27.423 14.347h3.367v118.651c0 8.933-6.331 16.533-15.054 18.072-23.991 4.233-46.454 14.841-65.106 30.466-4.54-32.115-14.302-60.595-28.278-81.383-1.969-2.93-5.256-4.679-8.793-4.679s-6.824 1.749-8.792 4.678c-19.804 29.458-31.163 74.349-31.163 123.162 0 7.371.272 14.673.797 21.86a301.753 301.753 0 0 0-11.54-12.205c-2.6-2.6-5.271-5.171-8.166-7.86a7.502 7.502 0 0 0-10.209 10.991c2.759 2.563 5.3 5.008 7.769 7.477 13.616 13.616 25.487 28.173 35.132 42.825a59.496 59.496 0 0 0-4.343 3.429 74.79 74.79 0 0 0-15.054-5.834l-53.593-53.593a7.5 7.5 0 0 0-10.606 0 7.5 7.5 0 0 0 0 10.606l40.443 40.443a76.78 76.78 0 0 0-20.65 3.823 286.415 286.415 0 0 1-6.62-6.409c-29.742-29.742-51.527-64.609-59.4-94.689 18.853 4.948 40.049 15.506 60.467 30.197a7.498 7.498 0 0 0 10.468-1.708 7.5 7.5 0 0 0-1.708-10.468c-24.95-17.952-50.211-29.807-73.052-34.283a10.568 10.568 0 0 0-9.525 2.91 10.576 10.576 0 0 0-2.91 9.525c3.289 16.781 10.833 35.468 21.819 54.04 11.385 19.247 25.931 37.78 43.235 55.083.853.853 1.718 1.688 2.579 2.527-19.417 11.626-32.274 31.65-32.274 54.373 0 35.845 31.972 65.008 71.271 65.008 17.099 0 32.79-5.541 45.082-14.732C165.061 501.062 180.46 506 195.449 506c12.913 0 25.513-3.683 36.111-11.094 15.583 7.14 32.896 11.134 51.128 11.134h106.128C456.74 506.04 512 450.78 512 382.856c0-32.544-11.583-64.263-32.615-89.312zm-75.139-85.92c16.9 0 30.649 13.749 30.649 30.649a30.445 30.445 0 0 1-5.493 17.472 137.814 137.814 0 0 0-30.941-9.737c-8.595-1.621-14.833-9.203-14.833-18.03V215.63c5.447-4.968 12.682-8.006 20.618-8.006zM292.391 20.96h86.747l-11.305 38.883h-63.771zm-21.173 65.145L263.4 74.843h120.04c5.283 0 9.582 4.298 9.582 9.582s-4.298 9.582-9.582 9.582h-97.122a18.387 18.387 0 0 1-15.1-7.902zm-98.763 122.907c15.705 26.837 24.955 66.896 24.955 108.96 0 18.222-1.703 35.934-4.886 52.344a69.091 69.091 0 0 0-12.569-.605v-87.823a7.5 7.5 0 0 0-15 0v90.237a61.935 61.935 0 0 0-5.452 1.827 266.401 266.401 0 0 0-8.681-12.541c-2.175-13.842-3.323-28.469-3.323-43.439 0-42.064 9.25-82.122 24.956-108.96zM50.557 441.032c0-27.575 25.243-50.008 56.271-50.008 8.884 0 17.29 1.844 24.769 5.116-16.796 24.773-13.491 60.135 8.974 84.881-9.408 6.286-21.093 10.018-33.743 10.018-31.028.001-56.271-22.433-56.271-50.007zm103.247 32.148c-21.94-21.94-23.927-55.653-4.429-75.151 8.718-8.718 20.52-13.432 33.478-13.432.925 0 1.857.024 2.793.072 14.341.741 28.149 7.058 38.88 17.789 21.94 21.94 23.927 55.653 4.429 75.151-19.499 19.499-53.211 17.511-75.151-4.429zm235.012 17.86H282.688c-13.777 0-26.954-2.6-39.083-7.317a59.547 59.547 0 0 0 5.796-8.492 97.731 97.731 0 0 0 33.287 5.81h106.128c49.507 0 91.398-37.025 97.442-86.124a7.5 7.5 0 0 0-14.887-1.833c-5.12 41.592-40.611 72.957-82.555 72.957H282.688a82.586 82.586 0 0 1-27.623-4.744c6.278-23.115-.528-50.042-19.932-69.445-8.279-8.279-17.932-14.248-28.071-17.906 2.453-12.388 4.081-25.444 4.843-38.852a99.462 99.462 0 0 1 11.206-16.247c14.936-17.589 35.452-29.507 57.83-33.611l110.777.208c22.109 4.33 42.341 16.322 57.034 33.822 10.012 11.925 17.167 26.251 20.689 41.43a7.497 7.497 0 0 0 9.001 5.61 7.5 7.5 0 0 0 5.61-9.001c-4.054-17.47-12.289-33.958-23.813-47.685-17.062-20.321-40.647-34.188-66.411-39.045a7.56 7.56 0 0 0-1.375-.13l-112.161-.21c-.427.019-.882.038-1.317.114-25.775 4.548-49.425 18.083-66.712 38.129a304.212 304.212 0 0 0-.739-13.854c17.973-17.761 40.939-29.752 65.713-34.124 15.905-2.806 27.448-16.618 27.448-32.843V109.006h63.942v118.971c0 16.033 11.378 29.815 27.054 32.771 28.026 5.284 53.674 20.357 72.216 42.442C486.665 325.542 497 353.834 497 382.856c0 59.653-48.531 108.184-108.184 108.184z" fill="#fff" opacity="1" data-original="#000000" class=""/><path d="M69.248 426.699a7.5 7.5 0 0 0-7.5 7.5v13.666a7.5 7.5 0 0 0 15 0v-13.666a7.5 7.5 0 0 0-7.5-7.5zM162.121 401.112l-9.663 9.663a7.5 7.5 0 0 0 0 10.606c1.464 1.465 3.384 2.197 5.303 2.197s3.839-.732 5.303-2.197l9.663-9.663a7.5 7.5 0 0 0 0-10.606 7.5 7.5 0 0 0-10.606 0z" fill="#fff" opacity="1" data-original="#000000" class=""/></g></svg>