<svg xmlns="http://www.w3.org/2000/svg" version="1.1" xmlns:xlink="http://www.w3.org/1999/xlink" x="0" y="0" viewBox="0 0 53 53" style="enable-background:new 0 0 512 512" xml:space="preserve"><g><path d="M28.623 29.807h3.056c1.033 0 1.873-.84 1.873-1.873v-2.47c0-1.034-.84-1.874-1.873-1.874h-3.056c-1.033 0-1.873.84-1.873 1.873v2.47c0 1.034.84 1.874 1.873 1.874zm.127-4.217h2.802v2.217H28.75zM38.227 29.807h3.056c1.032 0 1.873-.84 1.873-1.873v-2.47c0-1.034-.84-1.874-1.873-1.874h-3.056c-1.033 0-1.873.84-1.873 1.873v2.47c0 1.034.84 1.874 1.873 1.874zm.127-4.217h2.802v2.217h-2.802zM28.623 38.24h3.056c1.033 0 1.873-.84 1.873-1.873v-2.47c0-1.033-.84-1.874-1.873-1.874h-3.056c-1.033 0-1.873.84-1.873 1.873v2.471c0 1.033.84 1.873 1.873 1.873zm.127-4.217h2.802v2.217H28.75zM38.227 38.24h3.056c1.032 0 1.873-.84 1.873-1.873v-2.47c0-1.033-.84-1.874-1.873-1.874h-3.056c-1.033 0-1.873.84-1.873 1.873v2.471c0 1.033.84 1.873 1.873 1.873zm.127-4.217h2.802v2.217h-2.802zM28.623 46.673h3.056c1.033 0 1.873-.84 1.873-1.872v-2.472c0-1.032-.84-1.872-1.873-1.872h-3.056c-1.033 0-1.873.84-1.873 1.872v2.472c0 1.032.84 1.872 1.873 1.872zm.127-4.216h2.802v2.216H28.75zM38.227 46.673h3.056c1.032 0 1.873-.84 1.873-1.872v-2.472c0-1.032-.84-1.872-1.873-1.872h-3.056c-1.033 0-1.873.84-1.873 1.872v2.472c0 1.032.84 1.872 1.873 1.872zm.127-4.216h2.802v2.216h-2.802zM32.552 2.508c-1.438 0-2.21.704-2.775 1.217-1.043.95-1.812.952-2.857 0-1.805-1.642-3.741-1.646-5.549 0-1.028.936-1.797.964-2.852 0-.564-.513-1.336-1.217-2.773-1.217-2.123 0-3.577 1.69-3.577 3.566a1 1 0 0 0 2 0c0-.806.582-1.566 1.577-1.566.662 0 .95.262 1.425.696 1.804 1.644 3.74 1.646 5.547 0 1.043-.95 1.811-.951 2.856 0 1.806 1.644 3.741 1.646 5.55 0 .476-.434.764-.696 1.428-.696a1 1 0 0 0 0-2z" fill="currentColor" opacity="1" data-original="#000000"/><path d="M49.5 48.508h-2.513V15.13l1.293-.51a1 1 0 0 0 .634-.93V9.49a1 1 0 0 0-1.366-.931L21.626 18.76a1 1 0 0 0-.634.93v4.202a1 1 0 0 0 1.366.931l.559-.22V43.41h-1.84v-2.835a1 1 0 0 0-1-1h-.686l-.8-10.674c.533-.41.873-1.06.873-1.762v-.747c0-.863-.487-1.612-1.205-1.98l-.81-10.768a2.084 2.084 0 0 0 1.005-1.778v-1.287c0-1.153-.937-2.09-2.09-2.09h-5.642c-1.153 0-2.09.937-2.09 2.09v1.287c0 .754.405 1.41 1.005 1.778l-.81 10.769a2.216 2.216 0 0 0-1.205 1.979v.747c0 .703.34 1.352.874 1.763l-.802 10.673H7.01a1 1 0 0 0-1 1v2.835h-.924a1 1 0 0 0-1 1v4.098H3.5a1 1 0 0 0 0 2h46a1 1 0 0 0 0-2zM22.992 20.373l23.922-9.416v2.052l-23.922 9.416zm21.995-4.454v32.588h-20.07v-24.69l20.07-7.898zm-22.07 32.588H6.085V45.41h16.832zM9.772 27.345c-.072-.017-.15-.1-.15-.206v-.747c0-.122.082-.213.195-.218a1 1 0 0 0 .952-.924l.39-5.18h4.768l.39 5.18a1 1 0 0 0 .952.924c.113.005.195.096.195.218v.747c0 .105-.078.189-.15.206a1 1 0 0 0-.767 1.048l.38 5.068H10.16l.38-5.068a1 1 0 0 0-.767-1.048zm1.538-9.275.31-4.114h3.846l.31 4.114zm-.678-7.491c0-.05.04-.09.09-.09h5.642c.05 0 .09.04.09.09v1.287c0 .05-.04.09-.09.09h-5.642a.09.09 0 0 1-.09-.09v-1.287zm-.623 24.882h7.068l.31 4.114H9.7zm-2 6.114h11.068v1.835H8.01z" fill="currentColor" opacity="1" data-original="#000000"/></g></svg>