<svg xmlns="http://www.w3.org/2000/svg" version="1.1" xmlns:xlink="http://www.w3.org/1999/xlink" x="0" y="0" viewBox="0 0 64 64" style="enable-background:new 0 0 512 512" xml:space="preserve"><g><path d="M40.36 32.358c-.84-.515-1.36-1.476-1.36-2.507V13.816A2.995 2.995 0 0 0 41 11c0-1.654-1.346-3-3-3H26c-1.654 0-3 1.346-3 3 0 1.302.839 2.402 2 2.816V29.85c0 1.033-.52 1.992-1.355 2.505a16.052 16.052 0 0 0-7.634 14.221c.288 8.22 6.946 14.986 15.158 15.403.281.014.562.021.842.021 4.12 0 8.003-1.546 11.009-4.403C46.23 54.544 48 50.426 48 46c0-5.604-2.856-10.703-7.64-13.642zM26 10h12a1.001 1.001 0 0 1 0 2H26a1.001 1.001 0 0 1 0-2zm-1.31 24.06c1.425-.873 2.31-2.487 2.31-4.21V14h10v15.85c0 1.722.886 3.336 2.313 4.212a13.93 13.93 0 0 1 6.1 7.922c-1.739-.075-2.692-.477-3.687-.903C40.543 40.574 39.203 40 36.664 40s-3.879.574-5.06 1.08c-1.104.474-2.146.92-4.275.92-2.127 0-3.169-.446-4.271-.919-.953-.409-2.02-.856-3.725-1.016a14.033 14.033 0 0 1 5.357-6.005zm16.952 22.088c-2.809 2.67-6.501 4.03-10.371 3.833-7.184-.364-13.01-6.283-13.262-13.475-.054-1.54.15-3.054.579-4.49 1.736.075 2.688.477 3.682.903C23.452 43.426 24.79 44 27.33 44c2.538 0 3.879-.574 5.06-1.081 1.104-.473 2.146-.919 4.274-.919 2.129 0 3.171.446 4.274.919 1.159.496 2.476 1.054 4.916 1.077.094.657.146 1.326.146 2.004 0 3.873-1.548 7.476-4.358 10.148z" fill="currentColor" opacity="1" data-original="#000000"/><path d="M24 45c-1.654 0-3 1.346-3 3s1.346 3 3 3 3-1.346 3-3-1.346-3-3-3zm0 4a1.001 1.001 0 0 1 0-2 1.001 1.001 0 0 1 0 2zM40 47c-1.654 0-3 1.346-3 3s1.346 3 3 3 3-1.346 3-3-1.346-3-3-3zm0 4a1.001 1.001 0 0 1 0-2 1.001 1.001 0 0 1 0 2zM29.29 53.29c-.04.05-.09.1-.12.15-.04.06-.07.12-.09.18-.03.06-.05.12-.06.18-.01.07-.02.14-.02.2s.01.13.02.2c.01.06.03.12.06.18.02.06.05.12.09.18.03.05.08.1.12.15.19.18.45.29.71.29s.52-.11.71-.29c.18-.19.29-.44.29-.71s-.11-.52-.29-.71c-.38-.37-1.05-.37-1.42 0z" fill="currentColor" opacity="1" data-original="#000000"/><path d="M32 2C16.56 2 4 14.56 4 30c0 7.53 2.946 14.595 8.296 19.894a1 1 0 0 0 1.408-1.421C8.736 43.553 6 36.993 6 30 6 15.664 17.663 4 32 4s26 11.664 26 26c0 6.992-2.736 13.552-7.704 18.473a1 1 0 0 0 1.408 1.42C57.054 44.596 60 37.53 60 30 60 14.56 47.44 2 32 2z" fill="currentColor" opacity="1" data-original="#000000"/></g></svg>