<svg xmlns="http://www.w3.org/2000/svg" version="1.1" xmlns:xlink="http://www.w3.org/1999/xlink" x="0" y="0" viewBox="0 0 64 64" style="enable-background:new 0 0 512 512" xml:space="preserve"><g><g data-name="Layer 2"><path d="M54.136 14.019H9.864a.5.5 0 0 1-.5-.5V7a.5.5 0 0 1 .5-.5h44.272a.5.5 0 0 1 .5.5v6.519a.5.5 0 0 1-.5.5zm-43.772-1h43.272V7.5H10.364z" fill="currentColor" opacity="1" data-original="#000000"/><path d="M36.82 38.327h-9.64a.5.5 0 0 1-.438-.258L13.3 13.761a.5.5 0 0 1 .438-.742h36.521a.5.5 0 0 1 .438.742L37.258 38.069a.5.5 0 0 1-.438.258zm-9.345-1h9.05l12.887-23.308H14.588z" fill="currentColor" opacity="1" data-original="#000000"/><path d="M36.82 57.5h-9.64a.5.5 0 0 1-.5-.5V37.827a.5.5 0 0 1 .5-.5h9.64a.5.5 0 0 1 .5.5V57a.5.5 0 0 1-.5.5zm-9.14-1h8.64V38.327h-8.64z" fill="currentColor" opacity="1" data-original="#000000"/></g></g></svg>