<svg xmlns="http://www.w3.org/2000/svg" version="1.1" xmlns:xlink="http://www.w3.org/1999/xlink" x="0" y="0" viewBox="0 0 352.663 352.663" style="enable-background:new 0 0 512 512" xml:space="preserve"><g><path d="M197.316 174.298c-5.962 0-11.235-3.465-13.429-8.816-2.245-5.498-.787-11.913 3.618-15.954 4.989-4.56 5.617-12.291 1.433-17.598a104.776 104.776 0 0 0-16.784-16.949 13 13 0 0 0-8.106-2.845 13 13 0 0 0-9.632 4.274c-2.545 2.819-6.768 4.571-11.021 4.572-1.81 0-3.56-.331-5.039-.948-5.553-2.337-9.053-7.971-8.709-14.002.406-6.853-4.623-12.847-11.452-13.642a106.027 106.027 0 0 0-23.823-.063c-6.7.741-11.768 6.601-11.539 13.346.209 6.001-3.335 11.542-8.813 13.786-1.459.596-3.163.911-4.929.911-4.253 0-8.483-1.747-11.047-4.567a13.001 13.001 0 0 0-9.589-4.232c-2.879 0-5.716.976-8.007 2.762a105.146 105.146 0 0 0-17.13 16.938c-4.286 5.331-3.678 13.115 1.398 17.733 4.493 4.068 5.947 10.534 3.62 16.085-2.21 5.262-7.856 8.67-14.402 8.7-6.85-.153-12.403 4.706-13.22 11.46-.93 7.939-.946 16.04-.047 24.076.795 7.108 7.838 11.508 13.906 11.508l.511-.007c5.479 0 10.621 3.553 12.793 8.832 2.25 5.487.791 11.899-3.636 15.959-4.977 4.571-5.594 12.298-1.425 17.563a105.081 105.081 0 0 0 16.758 16.96 13.003 13.003 0 0 0 8.128 2.867 13.02 13.02 0 0 0 9.625-4.271c2.56-2.83 6.785-4.588 11.027-4.588 1.804 0 3.544.331 5.042.96 5.558 2.325 9.062 7.955 8.72 13.988-.409 6.869 4.626 12.862 11.438 13.641 4.01.471 8.118.709 12.209.709 3.869 0 7.78-.216 11.624-.641 6.699-.741 11.768-6.603 11.539-13.36-.216-5.989 3.324-11.523 8.802-13.767 1.473-.602 3.187-.92 4.956-.92 4.237 0 8.463 1.751 11.05 4.591a13.028 13.028 0 0 0 9.569 4.208c2.863 0 5.692-.968 8.007-2.757a105.463 105.463 0 0 0 17.129-16.936c4.298-5.341 3.687-13.131-1.396-17.741-4.498-4.07-5.956-10.531-3.626-16.081 2.177-5.198 7.441-8.698 13.118-8.735l.946.025c.257.016.513.023.767.023h.001c6.526 0 12.027-4.928 12.797-11.468.933-7.948.949-16.051.047-24.083-.8-7.106-7.775-11.506-13.777-11.506zm-.973 32.011c-11.574.114-22.305 7.295-26.762 17.934-4.537 10.808-2.105 23.285 5.996 31.65a90.408 90.408 0 0 1-12.11 11.972c-5.375-5.105-13.004-8.106-20.786-8.106-3.748 0-7.323.685-10.633 2.036-10.692 4.379-17.792 14.791-18.122 26.283a90.995 90.995 0 0 1-16.792-.044c-.106-11.643-7.134-22.238-17.943-26.76-3.359-1.41-7.006-2.126-10.84-2.126-7.799 0-15.433 3.016-20.799 8.137a90.221 90.221 0 0 1-11.808-11.952c7.957-8.315 10.389-20.68 6.003-31.374-4.422-10.75-14.99-18.004-26.364-18.131a90.927 90.927 0 0 1 .036-17.075c11.981-.558 22.371-7.442 26.745-17.861 4.535-10.816 2.105-23.299-5.986-31.655a90.229 90.229 0 0 1 12.109-11.968c5.368 5.103 13.001 8.103 20.801 8.103 3.746 0 7.312-.682 10.608-2.026 10.684-4.378 17.786-14.789 18.13-26.289a90.888 90.888 0 0 1 16.797.041c.104 11.626 7.118 22.221 17.934 26.772 3.361 1.402 7.007 2.113 10.836 2.113 7.81-.001 15.443-3.011 20.803-8.131a89.853 89.853 0 0 1 11.818 11.944c-7.946 8.304-10.381 20.664-6.012 31.365 4.398 10.73 14.68 17.762 26.366 18.122a90.584 90.584 0 0 1-.025 17.026z" style="" fill="#fff" data-original="#000002"/><path d="M106.033 157.46c-22.229 0-40.313 18.086-40.313 40.316 0 22.23 18.084 40.314 40.313 40.314 22.23 0 40.315-18.085 40.315-40.314 0-22.23-18.085-40.316-40.315-40.316zm0 65.631c-13.958 0-25.313-11.356-25.313-25.314 0-13.96 11.355-25.316 25.313-25.316 13.958 0 25.315 11.357 25.315 25.316 0 13.958-11.357 25.314-25.315 25.314zM274.957 95.992c-4.099 0-8.107.8-11.914 2.379-15.881 6.586-23.443 24.865-16.858 40.749 4.847 11.686 16.166 19.238 28.836 19.238 4.098 0 8.105-.8 11.911-2.378 15.883-6.586 23.446-24.866 16.86-40.748-4.846-11.689-16.164-19.24-28.835-19.24zm6.996 47.98a18.01 18.01 0 0 1-6.931 1.386c-7.396 0-14.001-4.403-16.827-11.218-3.84-9.262.569-19.92 9.829-23.762a18.026 18.026 0 0 1 6.934-1.387c7.396 0 14.001 4.403 16.827 11.22 3.839 9.261-.571 19.92-9.832 23.761z" style="" fill="#fff" data-original="#000002"/><path d="M345.492 136.62c-3.956-1.411-6.602-5.153-6.583-9.316.014-3.834 2.501-7.545 6.059-9.055l.64-.245c5.196-1.803 8.178-7.541 6.66-12.901a80.394 80.394 0 0 0-6.981-16.929c-1.797-3.249-5.45-5.268-9.535-5.268-1.54 0-3.073.299-4.432.863a10.378 10.378 0 0 1-3.98.802c-2.645 0-5.115-1.021-6.952-2.87-2.892-2.919-3.66-7.407-1.914-11.159 2.342-5.013.392-11.055-4.433-13.751a79.695 79.695 0 0 0-16.725-7.017 10.564 10.564 0 0 0-2.955-.422 10.638 10.638 0 0 0-10.006 7.063c-1.288 3.624-5.462 6.573-9.3 6.573-4.17-.022-7.901-2.697-9.28-6.643a10.614 10.614 0 0 0-12.935-6.723 80.464 80.464 0 0 0-16.746 6.893c-4.833 2.659-6.829 8.678-4.541 13.707 1.726 3.784.93 8.268-1.975 11.152-1.695 1.68-4.457 2.724-7.209 2.724-1.448 0-2.819-.285-3.977-.83a10.537 10.537 0 0 0-4.503-1.004 10.656 10.656 0 0 0-9.259 5.409 80.035 80.035 0 0 0-7.099 16.885c-1.568 5.378 1.334 11.071 6.616 12.965 3.952 1.411 6.597 5.159 6.58 9.322-.018 3.944-2.748 7.627-6.961 9.401-5.216 2.037-7.904 7.39-6.389 12.803a80.584 80.584 0 0 0 6.977 16.921c1.787 3.236 5.443 5.248 9.542 5.248 1.571 0 3.133-.306 4.519-.881l.149-.063a8.951 8.951 0 0 1 3.666-.763c2.607 0 5.172 1.072 7.03 2.939 2.893 2.91 3.658 7.396 1.903 11.168-2.33 5.018-.374 11.051 4.429 13.725a79.9 79.9 0 0 0 16.711 7.031c.97.284 1.974.428 2.981.428 4.47 0 8.487-2.831 9.998-7.055 1.293-3.628 5.45-6.58 9.309-6.58 4.168.013 7.899 2.684 9.28 6.63a10.614 10.614 0 0 0 12.926 6.726 80.184 80.184 0 0 0 16.754-6.893c4.835-2.659 6.831-8.679 4.538-13.716-1.727-3.774-.932-8.251 1.973-11.135 1.727-1.711 4.42-2.732 7.204-2.732 1.451 0 2.829.287 4.011.841 1.417.658 2.923.991 4.478.991h.001c3.804 0 7.343-2.056 9.26-5.405a80.33 80.33 0 0 0 7.098-16.881c1.569-5.384-1.335-11.08-6.622-12.973zm-10.814 21.645a22.963 22.963 0 0 0-7.417-1.216c-6.225 0-12.185 2.368-16.358 6.502-6.225 6.181-8.299 15.456-5.478 23.676a67.107 67.107 0 0 1-10.143 4.177 22.957 22.957 0 0 0-20.736-13.234c-8.563 0-16.892 5.396-20.626 13.101a66.942 66.942 0 0 1-10.121-4.261c2.874-8.211.862-17.499-5.325-23.725-4.285-4.304-10.207-6.771-16.247-6.771-2.593 0-5.107.436-7.494 1.299a67.67 67.67 0 0 1-4.265-10.351c8.077-4.083 13.218-11.963 13.256-20.561.035-8.902-5.143-16.974-13.088-20.74a67.062 67.062 0 0 1 4.325-10.274 22.903 22.903 0 0 0 7.405 1.214c6.235-.001 12.198-2.366 16.364-6.495 6.22-6.176 8.295-15.452 5.481-23.682a67.619 67.619 0 0 1 10.146-4.18 22.974 22.974 0 0 0 20.688 13.246c8.593 0 16.939-5.397 20.671-13.106a66.595 66.595 0 0 1 10.125 4.255c-2.869 8.2-.86 17.486 5.317 23.72 4.301 4.329 10.047 6.714 16.181 6.714a23.215 23.215 0 0 0 7.553-1.262 67.257 67.257 0 0 1 4.255 10.303c-7.927 3.711-13.207 11.883-13.239 20.639-.038 8.899 5.142 16.969 13.093 20.735a67.26 67.26 0 0 1-4.323 10.277z" style="" fill="#fff" data-original="#000002"/></g></svg>