<svg xmlns="http://www.w3.org/2000/svg" version="1.1" xmlns:xlink="http://www.w3.org/1999/xlink" xmlns:svgjs="http://svgjs.com/svgjs" x="0" y="0" viewBox="0 0 96 96" style="enable-background:new 0 0 512 512" xml:space="preserve"><g><g data-name="Potato tuber"><path d="M57.32 84.91H29.17a1 1 0 0 0 0 2h28.15a1 1 0 0 0 0-2z" fill="#fff" opacity="1" data-original="#000000"/><path d="M95 84.91h-2.76a8 8 0 0 0-10.72-7A10.61 10.61 0 0 0 71 75.19a8.05 8.05 0 0 0-2.77-5.88h2.37a1 1 0 0 0 1-1v-11.8a1 1 0 0 0-1-1h-3.5v-3.8h3.5a1 1 0 0 0 1-1v-11.8a1 1 0 0 0-1-1h-3.1c.64-4.64.12-10.77-.49-15.41a5.32 5.32 0 0 0-7.33-4.23 79.77 79.77 0 0 0-10.32 5.05 13.26 13.26 0 0 1 .51-1.75A9.46 9.46 0 0 0 33 13.38c-6.35 8.4-7.37 8.4-8.85 11.64-.33-.49-.65-1-1-1.52a8.89 8.89 0 0 0-15.4 8.89 49 49 0 0 0 3.78 5.52h-7a1 1 0 0 0-1 1v11.8a1 1 0 0 0 1 1h3.5v3.8H4.58a1 1 0 0 0-1 1v11.8a1 1 0 0 0 1 1h3.5v3.8h-3.5a1 1 0 0 0-1 1v10.8H1.05a1 1 0 1 0 0 2h17.48a1 1 0 0 0 0-2h-3.39a4.45 4.45 0 0 1 7.25-2.36 2.74 2.74 0 0 0 .28.16l.3.08a1.59 1.59 0 0 0 .47-.08 2.24 2.24 0 0 0 .36-.25s0-.08.07-.12A.9.9 0 0 0 24 82s0-.06 0-.09a7.89 7.89 0 0 1 13-5.34A1 1 0 1 0 38.33 75a9.7 9.7 0 0 0-2.48-1.56 4 4 0 0 1 4.57-3.13 1.34 1.34 0 0 0 .44 0 1.9 1.9 0 0 0 .35-.17 1.67 1.67 0 0 0 .29-.35 8.91 8.91 0 0 1 15.91-.3 8.07 8.07 0 0 0-2.41 4.2 1 1 0 0 0 2 .42 6.09 6.09 0 0 1 12 1.3c0 .86-.18 1.15 0 1.56v.1a.18.18 0 0 1 0 .07 1 1 0 0 0 .61.46s0 0 .08 0h.17a2.25 2.25 0 0 0 .39-.09A8.68 8.68 0 0 1 82 82.08a1 1 0 0 0 1.85-.78 10.37 10.37 0 0 0-.94-1.74 6 6 0 0 1 7.36 5.35H71.09a1 1 0 0 0 0 2H95a1 1 0 1 0 0-2zm-25.39-17.6h-3a52.92 52.92 0 0 0-4.8-9.8h7.77zm-4.5-11.8h-4.5c-.81-1.3-1.65-2.57-2.48-3.8h7zm-4.65-35.39A3.32 3.32 0 0 1 65 22.76c.34 2.64.66 5.82.75 8.9l-4-2.29a1 1 0 0 0-1.37.37 1 1 0 0 0 .38 1.37l5 2.85a29.87 29.87 0 0 1-.31 3.95H43.31A11.43 11.43 0 0 1 43.1 35c2.63 1.56 2.55 1.56 2.91 1.56a1 1 0 0 0 .51-1.86l-3.09-1.83a10.1 10.1 0 0 1 1.71-3.65L53 34.09a1 1 0 0 0 1.37-.32 1 1 0 0 0-.32-1.38l-7.48-4.64c2.69-2.34 7.07-4.58 10.31-6.07l4.24 2.92a1 1 0 0 0 1.39-.26 1 1 0 0 0-.26-1.34L59 20.73c.49-.21 1-.41 1.46-.61zm-30.9.77 5.38 3.4a1 1 0 0 0 1.38-.29 1 1 0 0 0-.32-1.4l-5.15-3.25c1.56-1.86.73-.8 3.77-4.83a7.46 7.46 0 0 1 13.55 5.73l-5.58-3.35a1 1 0 0 0-1 1.72l6 3.6a26.83 26.83 0 0 0-.53 2.64c-3.22 2.3-5 4.36-5.73 8.32a13.46 13.46 0 0 0-.06 4.73H37a8.92 8.92 0 0 0-3.78-4.36 28.17 28.17 0 0 1-7.69-6.65c.87-2.51 2.08-3.69 4.03-6.01zm-19.12 12 4.93-3.4a1 1 0 0 0-1.14-1.65l-4.82 3.34a6.8 6.8 0 0 1 3.88-9.71 6.8 6.8 0 0 1 8.17 3A29.61 29.61 0 0 0 24 28.22l-7.43 5.44a1 1 0 0 0 .6 1.8c.46 0-.05.28 8.14-5.73 5.25 5.67 7.63 4.93 9.44 8.18H14.16a45.44 45.44 0 0 1-3.72-5.01zm-4.86 7h64v9.8H56.74c-.38-.55-.77-1.1-1.14-1.62a4.92 4.92 0 0 0-8 0l-1.15 1.62H5.58zm4.5 11.8h35c-.83 1.23-1.67 2.51-2.48 3.8H10.08zm-4.5 11.7h6.36a1 1 0 0 0 0-2H5.58v-3.9h35.77a52.28 52.28 0 0 0-4.8 9.8h-31zm0 21.5v-3.43h9.23a6.43 6.43 0 0 0-1.71 3.45zm16.73-4.76a6.29 6.29 0 0 0-3.56-.65c-.28-.06 1 0-13.17 0v-4.37h19.8a9.9 9.9 0 0 0-3.07 5.04zm6.39-7c-.29-.11 1-.07-18.62-.07v-3.8H36c0 .12 0 .23-.07.35a5.91 5.91 0 0 0-2 3.19 9.58 9.58 0 0 0-5.23.38zm30.35-4.87a10.91 10.91 0 0 0-19 0h-.32a6.15 6.15 0 0 0-1.43.18c1.16-3.8 3.91-8.66 6.66-12.93h4.69a1 1 0 0 0 0-2h-3.4a100.6 100.6 0 0 1 3-4.27 2.92 2.92 0 0 1 4.76 0c1.72 2.39 4.05 5.77 6.16 9.3h-7.45a1 1 0 0 0 0 2h8.57a45.91 45.91 0 0 1 3.29 6.92 8.08 8.08 0 0 0-5.53.85z" fill="#fff" opacity="1" data-original="#000000"/><path d="M48 58.56h-1.33a1 1 0 0 0 0 2H48a1 1 0 0 0 0-2zM57.63 27l-.83-.48a1 1 0 0 0-1 1.74l.84.48a1 1 0 0 0 1-1.74zM36.34 31.88a1 1 0 1 0 1.11-1.66l-3.21-2.16a1 1 0 1 0-1.11 1.66zM25.18 33.65l-1.35 1A1 1 0 0 0 25 36.24l1.35-1a1 1 0 0 0-1.16-1.63z" fill="#fff" opacity="1" data-original="#000000"/></g></g></svg>