<svg xmlns="http://www.w3.org/2000/svg" version="1.1" xmlns:xlink="http://www.w3.org/1999/xlink" x="0" y="0" viewBox="0 0 64 64" style="enable-background:new 0 0 512 512" xml:space="preserve"><g><path d="M60.501 37.95A4.706 4.706 0 0 0 55 36.098V10c0-1.654-1.346-3-3-3H20c-1.654 0-3 1.346-3 3v24.948l-5.008.969A2.999 2.999 0 0 0 9 33H5c-1.654 0-3 1.346-3 3v18c0 1.654 1.346 3 3 3h4a2.995 2.995 0 0 0 2.816-2H31.96a26.626 26.626 0 0 0 10.694-2.23l16.095-7.998c2.498-1.2 3.372-4.515 1.751-6.823zM39.813 42h-9.02l2.448-1.142a5.45 5.45 0 0 0 2.863-3.17 5.45 5.45 0 0 0-.274-4.263 5.472 5.472 0 0 0-7.184-2.544l-4.298 1.953A24.651 24.651 0 0 1 19 34.556V19h10v4.41a2.98 2.98 0 0 0 1.679 2.693 2.988 2.988 0 0 0 3.157-.32L36 24.106l2.164 1.675a2.981 2.981 0 0 0 3.157.32A2.981 2.981 0 0 0 43 23.41V19h10v17.864c-4.869 1.9-11.993 4.672-13.188 5.136zM53 10v7H43V9h9c.552 0 1 .449 1 1zM41 9v14.41a.98.98 0 0 1-.56.897.978.978 0 0 1-1.051-.107l-2.777-2.148a1.002 1.002 0 0 0-1.224 0L32.61 24.2c-.307.24-.7.28-1.051.107a.98.98 0 0 1-.56-.898V9h10zM20 9h9v8H19v-7c0-.551.449-1 1-1zM9 55H5c-.551 0-1-.449-1-1V36c0-.551.449-1 1-1h4c.551 0 1 .449 1 1v18c0 .551-.449 1-1 1zm50.242-13.711a2.653 2.653 0 0 1-1.383 1.692l-16.07 7.987A24.636 24.636 0 0 1 31.961 53H12V37.953l7.212-1.395a26.653 26.653 0 0 0 5.963-1.903l4.298-1.953a3.48 3.48 0 0 1 4.568 1.617c.426.85.487 1.813.175 2.711a3.465 3.465 0 0 1-1.821 2.015l-10.818 5.049a1 1 0 0 0 .74 1.855L28.1 44.02c.978.285 11.063.045 12.261-.089 0 0 10.137-3.942 15.192-5.92 1.207-.473 2.557-.043 3.333 1.12.423.634.551 1.42.355 2.157z" fill="#fff" opacity="1" data-original="#000000"/></g></svg>