<svg xmlns="http://www.w3.org/2000/svg" version="1.1" xmlns:xlink="http://www.w3.org/1999/xlink" xmlns:svgjs="http://svgjs.com/svgjs" x="0" y="0" viewBox="0 0 64 64" style="enable-background:new 0 0 512 512" xml:space="preserve" class=""><g><path d="M15.994 41.03a.999.999 0 0 1-.426-.094Q8.07 37.41.57 33.906a1 1 0 0 1 .001-1.812l15-7a1.008 1.008 0 0 1 .838-.004l.483.213c.172.075.346.15.517.227a1 1 0 0 1-.83 1.82l-.482-.212-.091-.04-12.65 5.903q6.326 2.96 12.652 5.93l4.745-2.087q2.66-1.168 5.317-2.34a1 1 0 0 1 .807 1.831q-2.656 1.172-5.32 2.34l-5.16 2.27a.997.997 0 0 1-.403.085Z" fill="currentColor" data-original="#000000" class=""/><path d="M15.994 60a1.006 1.006 0 0 1-.423-.094l-15-7A.999.999 0 0 1-.006 52V33a1 1 0 0 1 2 0v18.363l13 6.067V40.026a1 1 0 0 1 2 0V59a1 1 0 0 1-1 1Z" fill="currentColor" data-original="#000000" class=""/><path d="M15.995 60a1 1 0 0 1-.403-1.915l15.402-6.776V38a1 1 0 0 1 2 0v13.96a.999.999 0 0 1-.598.916l-16 7.039a.995.995 0 0 1-.4.085ZM47.004 41.02a1 1 0 0 1-.423-.094c-3.055-1.426-6.09-2.853-9.144-4.286l-.318-.15a.999.999 0 0 1 .385-1.92h.01a.996.996 0 0 1 .424.095l.35.164c2.915 1.37 5.815 2.732 8.729 4.093q6.757-2.96 13.5-5.923-4.658-2.043-9.318-4.077l-3.605-1.576a1 1 0 1 1 .8-1.832L52 27.089q5.707 2.493 11.406 4.996a1 1 0 0 1 0 1.831q-7.996 3.51-16 7.02a1.006 1.006 0 0 1-.402.084Z" fill="currentColor" data-original="#000000" class=""/><path d="M47.006 59.997a1.005 1.005 0 0 1-.423-.094l-15-7a1 1 0 0 1 .846-1.812l13.577 6.336V40.024a1 1 0 0 1 2 0v18.973a1 1 0 0 1-1 1Z" fill="currentColor" data-original="#000000" class=""/><path d="M47.007 59.997a1 1 0 0 1-.403-1.915l15.402-6.776V32.997a1 1 0 1 1 2 0v18.961a.999.999 0 0 1-.598.915l-16 7.04a.995.995 0 0 1-.401.084ZM31.994 20.026a.99.99 0 0 1-.424-.094l-15-7.027a1 1 0 0 1 .001-1.811l15-7a.997.997 0 0 1 .824-.01l16 7a1 1 0 0 1 .001 1.832l-16 7.026a1.014 1.014 0 0 1-.402.084Zm-12.639-8.024 12.653 5.927 13.495-5.927-13.495-5.904Z" fill="currentColor" data-original="#000000" class=""/><path d="M31.994 39a1.006 1.006 0 0 1-.423-.094l-15-7a.999.999 0 0 1-.577-.906V12a1 1 0 0 1 2 0v18.363l13 6.067V19.026a1 1 0 0 1 2 0V38a1 1 0 0 1-1 1Z" fill="currentColor" data-original="#000000" class=""/><path d="M31.995 39a1 1 0 0 1-.403-1.915l15.402-6.776V12a1 1 0 0 1 2 0v18.96a.999.999 0 0 1-.598.916l-16 7.039a.995.995 0 0 1-.4.085ZM20.014 44a1 1 0 0 1-.01-2h.01a1 1 0 1 1 0 2ZM23.014 51a1 1 0 0 1-.01-2h.01a1 1 0 1 1 0 2ZM27.014 43a1 1 0 0 1-.01-2h.01a1 1 0 1 1 0 2ZM36.014 23a1 1 0 0 1-.01-2h.01a1 1 0 0 1 0 2Z" fill="currentColor" data-original="#000000" class=""/><path d="M39.014 30a1 1 0 0 1-.01-2h.01a1 1 0 0 1 0 2ZM43.014 22a1 1 0 0 1-.01-2h.01a1 1 0 0 1 0 2ZM10.014 34a1 1 0 0 1-.01-2h.01a1 1 0 0 1 0 2ZM17.014 36a1 1 0 0 1-.01-2h.01a1 1 0 1 1 0 2Z" fill="currentColor" data-original="#000000" class=""/></g></svg>