<svg xmlns="http://www.w3.org/2000/svg" version="1.1" xmlns:xlink="http://www.w3.org/1999/xlink" x="0" y="0" viewBox="0 0 601.722 601.722" style="enable-background:new 0 0 512 512" xml:space="preserve"><g><path fill-rule="evenodd" d="M239.884 259.981c.371 0 .722.05 1.073.05a10.032 10.032 0 0 0 1.004-20.003 108.45 108.45 0 0 1-76.41-43.035 10.036 10.036 0 0 0-16.342 11.656 127.094 127.094 0 0 0 90.675 51.332z" clip-rule="evenodd" fill="currentColor" opacity="1" data-original="#000000"/><path d="M601.238 394.212a10.03 10.03 0 0 0-3.702-11.225 226.39 226.39 0 0 1-74.845-82.138h68.997a10.032 10.032 0 0 0 5.849-18.177c-37.498-26.894-63.279-55.715-76.641-85.689-41.721-93.293-85.97-95.57-107.237-96.663l-403.497-.1c-5.54-.053-10.074 4.396-10.127 9.936-.053 5.54 4.396 10.074 9.936 10.127.532 0 52.164 2.066 89.09 80.252H10.163c-5.54-.072-10.09 4.361-10.162 9.901-.072 5.54 4.361 10.09 9.901 10.162 2.167.07 52.595 2.899 89.18 80.252H10.163c-5.54-.072-10.09 4.361-10.162 9.901-.072 5.54 4.361 10.09 9.901 10.162 2.207.07 54.712 2.809 91.427 84.866 1.495 3.32 3.009 6.531 4.705 9.7 29.53 53.929 86.519 87.046 147.995 86h337.66a10.032 10.032 0 0 0 5.849-18.177 226.39 226.39 0 0 1-74.845-82.138h68.997a10.03 10.03 0 0 0 9.548-6.952zM61.183 120.282h349.688l1.766.09c18.608 1.003 53.237 2.719 89.942 84.806a218.167 218.167 0 0 0 59.928 75.607H254.068C200.02 281.82 149.85 252.82 123.769 205.47a140.888 140.888 0 0 1-4.133-8.487 183.276 183.276 0 0 0-58.453-76.701zm441.386 285.466a218.469 218.469 0 0 0 59.958 75.668H254.028c-54.052 1.027-104.22-27.986-130.289-75.347-1.495-2.809-2.809-5.618-4.103-8.497a183.305 183.305 0 0 0-58.433-76.661h48.151c30.526 50.571 85.611 81.127 144.674 80.252h246.414c.712 1.535 1.424 2.939 2.137 4.584h-.01zm-248.541-24.647c-53.83 1.007-103.826-27.76-130.008-74.805-.09-.181-.181-.361-.281-.542-1.495-2.809-2.809-5.618-4.103-8.497a183.305 183.305 0 0 0-58.433-76.661h48.151c30.523 50.599 85.639 81.162 144.724 80.252h246.373c.712 1.535 1.424 2.939 2.137 4.584a218.461 218.461 0 0 0 59.938 75.668H254.028z" fill="currentColor" opacity="1" data-original="#000000"/></g></svg>