<svg xmlns="http://www.w3.org/2000/svg" version="1.1" xmlns:xlink="http://www.w3.org/1999/xlink" x="0" y="0" viewBox="0 0 340 340" style="enable-background:new 0 0 512 512" xml:space="preserve"><g><path d="M295.28 111.217a53.016 53.016 0 0 0-11.4-3.689 4 4 0 0 0-1.569 7.844 45 45 0 0 1 9.672 3.136 50.434 50.434 0 0 1 24.59 24.882c10.427 22.294 10.861 46.478 1.12 61.61-8.941 13.894-23.226 23.539-40.224 27.16a4 4 0 1 0 1.666 7.824c19.1-4.068 35.181-14.955 45.285-30.654 11.192-17.392 10.959-44.6-.6-69.329a58.433 58.433 0 0 0-28.54-28.784zM227.492 182.567a4 4 0 0 0-2.623 7.559c26.112 9.062 28.609 37.26 28.7 38.4 2.476 39.434-10.562 68.367-37.7 83.673-17.5 9.871-38.537 12.471-59.228 7.319-46.4-11.548-55.253-50.135-56.4-72.108a58.784 58.784 0 0 1 6.976-31.557 49.877 49.877 0 0 1 27.512-23.441 4 4 0 0 0-2.708-7.527 57.656 57.656 0 0 0-31.806 27.1 66.767 66.767 0 0 0-7.963 35.844c.59 11.3 3.189 28.009 12.218 43.451 10.669 18.247 27.572 30.361 50.239 36a94.182 94.182 0 0 0 22.75 2.823 85.94 85.94 0 0 0 42.341-10.937c20.92-11.8 45.145-37.187 41.756-91.188-.112-1.403-2.915-34.599-34.064-45.411zM33 234.88c-1.694 9.168-.5 22.981 7.922 34.257a4 4 0 0 0 6.409-4.789 37.069 37.069 0 0 1-6.464-28.015A4 4 0 0 0 33 234.88zM40.739 221.412a4 4 0 0 0 5.492-1.355 20.11 20.11 0 0 1 1.061-1.61 4 4 0 0 0-6.33-4.891 26.457 26.457 0 0 0-1.578 2.364 4 4 0 0 0 1.355 5.492z" fill="#fff" opacity="1" data-original="#000000"/><path d="M124.616 241.009a61.148 61.148 0 0 0 9.563 38.351 4 4 0 1 0 6.778-4.248 53.316 53.316 0 0 1-8.369-33.429 4 4 0 0 0-7.972-.674zM133.143 227.466a4 4 0 0 0 3.618-2.288c.077-.164.128-.265.145-.3a4 4 0 0 0-7.069-3.745s-.113.209-.306.616a4 4 0 0 0 3.612 5.714z" fill="#fff" opacity="1" data-original="#000000"/><path d="M282.844 135.635a4 4 0 0 0 2.42-7.187 29.222 29.222 0 0 0-16.766-6.29 32.4 32.4 0 0 0 2.319-4.106c3.964-8.431 3.841-17.86-.365-28.024a4 4 0 0 0-3.661-2.47h-.035a4 4 0 0 0-3.669 2.406c-1.011 2.329-4.97 9.37-9.734 11.125a4.108 4.108 0 0 0-.414.18 38.675 38.675 0 0 0-10.063 7.743c-5.626-10.456-19.863-29.816-49.807-34.75a41.818 41.818 0 0 0-4.3-.457c-10.39-.649-23.381-3.133-29.612-8.136-8.026-26.927-19.887-43.764-26.1-51.26a12.441 12.441 0 0 0-19.812 15.013c24.734 35.529 29.193 65.982 29.992 76.29-32.38 2.093-49.3 17.872-57.851 31.032a72.984 72.984 0 0 0-10.426 26.228c-12.919-1.118-17.077-15.5-17.257-16.143a4 4 0 0 0-3.77-2.952 3.95 3.95 0 0 0-3.9 2.777c-3.866 12.061-3.8 21.9.163 29.3a65.847 65.847 0 0 0-34.234 30.626 75.615 75.615 0 0 0-1.688 66.72c7.05 15.174 22.042 33.866 53.437 36.746q2.978.271 5.964.272a65.892 65.892 0 0 0 26.2-5.435 4 4 0 1 0-3.186-7.338 57.815 57.815 0 0 1-28.249 4.534c-22.163-2.033-37.946-12.85-46.912-32.15a67.562 67.562 0 0 1 1.507-59.625C30 197.1 40.9 187.76 55.447 182.492c5.109 4.406 12.464 7.069 21.652 7.773a4 4 0 1 0 .611-7.977c-6.623-.507-15.418-2.451-19.709-8.83-2.338-3.478-3.234-8.068-2.687-13.716 4.688 6.381 12.319 12.077 23.415 11.215a4 4 0 0 0 3.681-3.665 63.071 63.071 0 0 1 9.681-26.192c11.433-17.591 30.082-26.872 55.428-27.583a4 4 0 0 0 3.887-3.918c.031-1.563.393-38.8-31.6-84.751a4.313 4.313 0 0 1-.63-3.633 4.448 4.448 0 0 1 7.718-1.7c8.792 10.6 29.531 40.986 32.23 94.146a4 4 0 0 0 1.393 2.835c.239.2 23.9 20.978 20.888 62.128a4 4 0 0 0 3.989 4.292h.005c6.553-.008 17.827-2.406 25.663-10.169a24.239 24.239 0 0 1-3.278 8.639c-3.307 5.214-8.836 8.688-16.439 10.335-3.438-.424-18.412-2.087-27.235-.055-3.563-.873-17.824-5.439-19.322-22.843 5.534 6.4 14.4 13.793 26.59 15.309a4 4 0 0 0 4.487-3.757c.049-.91 1.09-22.515-7.469-41.049a28.173 28.173 0 0 0-28.982-15.874c-16.921 2.172-45.847 11.324-49.464 48.224a4 4 0 0 0 4.274 4.38c.652-.048 11.6-.954 20.338-7.853a20.135 20.135 0 0 1-4.17 7.4c-4.109 4.5-10.548 6.588-19.13 6.236a4 4 0 0 0-.34 7.992c11.08.471 19.642-2.516 25.422-8.882 9.645-10.622 7.544-26.572 7.449-27.246a4 4 0 0 0-7.739-.761c-3.113 8.95-11.78 12.669-17.38 14.168 4.868-25.56 25.084-33.587 41.759-35.726a20.1 20.1 0 0 1 20.7 11.292c5.47 11.846 6.577 25.545 6.756 32.574-14.73-4.38-22.762-19.8-22.846-19.961a4 4 0 0 0-7.506 1.1c-2.142 11.966-.451 22 5.026 29.811a32.827 32.827 0 0 0 11.458 10.018 28.882 28.882 0 0 0-5.326 4.193 4 4 0 0 0 5.723 5.59c3.735-3.825 10.03-6.093 10.9-6.4 6.521-1.8 20.247-.577 25.366.091A39.534 39.534 0 0 1 203 206.328a4 4 0 1 0 4.988-6.254 47.189 47.189 0 0 0-5.492-3.768 29.255 29.255 0 0 0 12.04-10.645c7.832-12.346 4.23-27.415 4.073-28.05a4 4 0 0 0-3.851-3.04h-.032a4 4 0 0 0-3.867 2.98c-3.276 12.416-14.869 15.95-21.235 16.956 1.113-36.956-17.4-57.781-22.6-62.883a206.85 206.85 0 0 0-5.019-35.23c9.3 3.87 20.728 5.037 26.266 5.383a34.86 34.86 0 0 1 3.5.365c35.833 5.907 46.164 34.929 46.583 36.152a4 4 0 0 0 7.394.459c2.825-5.867 9.546-9.68 10.636-10.269a22.5 22.5 0 0 0 9.026-7.118 22.953 22.953 0 0 1-1.814 13.236 31.146 31.146 0 0 1-10.412 11.77l-.034.023a51.675 51.675 0 0 1-12.729 6.537c-12.139 3.658-21.574 3.168-28.041-1.457a22.087 22.087 0 0 1-7.328-9.614c10.086 4.743 22.254 4.332 22.948 4.3a4 4 0 0 0 3.465-5.684c-4.9-10.53-13.12-19.086-24.439-25.43a60.241 60.241 0 0 0-25.792-7.331 80.056 80.056 0 0 1-5.877-.607 4 4 0 1 0-1.112 7.922 88.02 88.02 0 0 0 6.471.668 52.313 52.313 0 0 1 22.4 6.327 50.894 50.894 0 0 1 17.712 15.829c-6.559-.746-15.051-2.922-18.932-8.328a4 4 0 0 0-7.254 2.473c.021.68.645 16.461 12.356 25.45a48.276 48.276 0 0 0-11.849 21.772 4 4 0 1 0 7.774 1.888 40.8 40.8 0 0 1 11.382-19.672 33.67 33.67 0 0 0 11.6 1.929 48.378 48.378 0 0 0 6.531-.473 23.621 23.621 0 0 0-.391 12.2 4 4 0 0 0 7.795-1.8 16.219 16.219 0 0 1 2.278-12.519c.21-.062.417-.116.628-.179a58.275 58.275 0 0 0 15.284-7.84c1.572-1.007 11.154-6.464 22.395 2.061a3.974 3.974 0 0 0 2.419.818z" fill="#fff" opacity="1" data-original="#000000"/></g></svg>