<svg xmlns="http://www.w3.org/2000/svg" version="1.1" xmlns:xlink="http://www.w3.org/1999/xlink" x="0" y="0" viewBox="0 0 60 60" style="enable-background:new 0 0 512 512" xml:space="preserve" class=""><g><g fill="#000" fill-rule="nonzero"><path d="M5.275 11.471A2.271 2.271 0 0 0 8.982 10H36a3 3 0 0 0 3-3V5a3 3 0 0 0-3-3H8.982A2.271 2.271 0 0 0 5.276.528L.808 4.249a2.3 2.3 0 0 0 .009 3.51zM2.1 5.778l4.457-3.714A.261.261 0 0 1 6.724 2c.041 0 .082.01.119.027.098.041.16.139.157.245V3a1 1 0 0 0 1 1h28a1 1 0 0 1 1 1v2a1 1 0 0 1-1 1H8a1 1 0 0 0-1 1v.728a.256.256 0 0 1-.155.245.263.263 0 0 1-.287-.038L2.107 6.229A.3.3 0 0 1 2 6c0-.085.036-.166.1-.222zM54.725 10.529A2.271 2.271 0 0 0 51.018 12H24a3 3 0 0 0-3 3v2a3 3 0 0 0 3 3h27.018a2.266 2.266 0 0 0 3.706 1.472l4.468-3.721a2.3 2.3 0 0 0-.009-3.51zm3.175 5.693-4.459 3.714a.269.269 0 0 1-.441-.208V19a1 1 0 0 0-1-1H24a1 1 0 0 1-1-1v-2a1 1 0 0 1 1-1h28a1 1 0 0 0 1-1v-.728a.256.256 0 0 1 .155-.245.259.259 0 0 1 .287.038l4.449 3.706A.3.3 0 0 1 58 16a.292.292 0 0 1-.1.222zM58 27l-5.215.008A2.777 2.777 0 0 0 50.113 29H46.94a2.937 2.937 0 0 1-1.332-.314l-5.377-2.694a9.551 9.551 0 0 0-8.469 0l-.263.132-.268-.136a9.558 9.558 0 0 0-8.469 0l-5.375 2.693c-.411.21-.866.319-1.327.319H9.887a2.777 2.777 0 0 0-2.67-1.992L2 27a2 2 0 0 0-2 2v16a2 2 0 0 0 2 2l5.019.008 3 1.25a3.626 3.626 0 0 0 1.738 3.225 3.551 3.551 0 0 0 2.721.389c.026-.007.05-.02.076-.028.215.96.813 1.79 1.655 2.3a3.546 3.546 0 0 0 2.72.384c.026-.007.049-.02.075-.027a3.614 3.614 0 0 0 1.662 2.3c.815.49 1.794.631 2.714.389.023-.006.044-.018.067-.024a3.55 3.55 0 0 0 1.63 2.266l.014.008.028.018a3.528 3.528 0 0 0 2.716.39 3.525 3.525 0 0 0 1.714-1.03l.583.453a3.5 3.5 0 0 0 2.621.697 3.477 3.477 0 0 0 2.334-1.366c.578-.765.823-1.73.68-2.678l.044-.005a3.468 3.468 0 0 0 2.333-1.353 3.536 3.536 0 0 0 .736-2.154c.227.014.455.005.68-.025a3.464 3.464 0 0 0 2.328-1.352c.481-.62.742-1.382.742-2.167 0-.4-.065-.797-.194-1.175A3.364 3.364 0 0 0 43.772 47l9 .008h.006L58 47a2 2 0 0 0 2-2V29a2 2 0 0 0-2-2zm-18.657.784 5.365 2.688A4.962 4.962 0 0 0 46.94 31h3.166l1.557 14.006L44.922 45a3.6 3.6 0 0 0 .078-.985 4.176 4.176 0 0 0-1.7-2.978l-10.1-7.064a2.99 2.99 0 0 0-4.045.525l-4.644 5.554a2.464 2.464 0 0 1-3.426.335.988.988 0 0 1-.184-1.355l4.611-6.589a8.017 8.017 0 0 1 2.978-2.57l4.163-2.086a7.552 7.552 0 0 1 6.689-.003zM2 29l5.217.008a.794.794 0 0 1 .789.882L6.325 45.007 2 45zm10.784 20.767a1.643 1.643 0 0 1-.565-2.224l.442-.755A1.569 1.569 0 0 1 14.022 46c.282 0 .558.078.8.223.49.295.786.828.779 1.4.001.288-.073.57-.216.82l-.442.754c-.21.367-.558.634-.967.741a1.554 1.554 0 0 1-1.192-.171zm4.452 2.661a1.643 1.643 0 0 1-.564-2.224l.443-.757a1.57 1.57 0 0 1 1.36-.788c.282 0 .558.078.8.223.745.461.997 1.425.575 2.192v.006l-.453.78-.006.012a1.564 1.564 0 0 1-2.151.556zm4.464 2.656a1.633 1.633 0 0 1-.578-2.208l.008-.011.442-.757c.007-.011.012-.024.018-.036a1.553 1.553 0 0 1 2.132-.541c.764.46 1.02 1.446.574 2.218l-.454.78a1.555 1.555 0 0 1-2.142.555zm5.639 2.827c-.402.107-.83.045-1.187-.17l-.014-.009a1.618 1.618 0 0 1-.569-2.193l.281-.484.179-.308a1.561 1.561 0 0 1 2.157-.547 1.621 1.621 0 0 1 .568 2.2l-.462.794c-.21.358-.555.617-.958.717zm13.126-12.472a1 1 0 0 0-1.231 1.577l.792.62a1.548 1.548 0 0 1 .274 2.182 1.5 1.5 0 0 1-2.125.282l-.657-.512a1 1 0 1 0-1.253 1.559l.017.013c.676.534.797 1.512.271 2.194a1.5 1.5 0 0 1-2.117.276 1.006 1.006 0 0 0-1.228 1.594c.65.52.786 1.456.31 2.139l-.036.045a1.519 1.519 0 0 1-2.13.282l-.743-.577a3.619 3.619 0 0 0-1.409-4.641 3.516 3.516 0 0 0-2.713-.39c-.027.007-.05.021-.077.028a3.612 3.612 0 0 0-1.662-2.3 3.524 3.524 0 0 0-2.713-.389c-.026.007-.049.02-.074.027a3.571 3.571 0 0 0-4.379-2.678c-.026.007-.049.021-.075.028a3.616 3.616 0 0 0-1.655-2.3 3.564 3.564 0 0 0-4.914 1.278l-.325.556-2.313-.958L9.894 31h6.166a4.962 4.962 0 0 0 2.228-.525l5.363-2.688a7.557 7.557 0 0 1 5.467-.467l-1.525.765a10 10 0 0 0-3.722 3.215l-4.605 6.581a2.988 2.988 0 0 0 .568 4.071 4.47 4.47 0 0 0 6.213-.618l4.64-5.549a1 1 0 0 1 1.36-.174l10.068 7.037c.497.36.818.912.885 1.522.043.44-.105.876-.405 1.2a1.611 1.611 0 0 1-2.13.069zM58 45l-4.324.007L52 29.89a.794.794 0 0 1 .791-.882L58 29z" fill="#fff" opacity="1" data-original="#fff" class=""/></g></g></svg>