<svg xmlns="http://www.w3.org/2000/svg" version="1.1" xmlns:xlink="http://www.w3.org/1999/xlink" x="0" y="0" viewBox="0 0 50 60" style="enable-background:new 0 0 512 512" xml:space="preserve"><g><g fill="#000" fill-rule="nonzero"><path d="M10.194 57.3A74.518 74.518 0 0 0 25 59c4.98-.07 9.94-.64 14.806-1.7a12.477 12.477 0 0 0 7.4 2.7 2.622 2.622 0 0 0 2.507-1.974c.813-2.371-.167-6.59-2.61-8.876A123.487 123.487 0 0 0 49 30a123.487 123.487 0 0 0-1.893-19.15c2.443-2.286 3.423-6.5 2.61-8.876A2.622 2.622 0 0 0 47.21 0a12.477 12.477 0 0 0-7.4 2.7A74.518 74.518 0 0 0 25 1c-4.98.07-9.94.64-14.806 1.7A12.477 12.477 0 0 0 2.79 0 2.622 2.622 0 0 0 .283 1.974c-.813 2.371.167 6.59 2.61 8.876A123.487 123.487 0 0 0 1 30c.132 6.423.765 12.826 1.893 19.15C.45 51.436-.53 55.655.283 58.026A2.622 2.622 0 0 0 2.79 60a12.477 12.477 0 0 0 7.404-2.7zm-8.019.075a7.672 7.672 0 0 1 1.17-5.646l.181.972a1 1 0 1 0 1.965-.371A132.756 132.756 0 0 1 3 30 132.756 132.756 0 0 1 5.491 7.667 1 1 0 0 0 3.526 7.3l-.181.972a7.672 7.672 0 0 1-1.17-5.646C2.388 2 2.66 2 2.79 2c1.663.064 3.29.51 4.754 1.3l-.3.073a1 1 0 0 0 .479 1.941A76.482 76.482 0 0 1 25 3a76.482 76.482 0 0 1 17.278 2.31 1 1 0 0 0 .479-1.941l-.3-.073A10.89 10.89 0 0 1 47.21 2c.13 0 .4 0 .615.622a7.672 7.672 0 0 1-1.17 5.646l-.181-.972a1 1 0 1 0-1.965.371A132.756 132.756 0 0 1 47 30a132.756 132.756 0 0 1-2.491 22.333 1 1 0 1 0 1.965.371l.181-.972a7.672 7.672 0 0 1 1.17 5.646c-.213.622-.485.622-.615.622a10.89 10.89 0 0 1-4.754-1.3l.3-.073a1 1 0 0 0-.479-1.941A76.482 76.482 0 0 1 25 57a76.482 76.482 0 0 1-17.278-2.31 1 1 0 1 0-.479 1.941l.3.073A10.89 10.89 0 0 1 2.79 58c-.13 0-.402 0-.615-.622z" fill="#000000" opacity="1" data-original="#000000"/><path d="M10 30c0 8.284 6.716 15 15 15s15-6.716 15-15-6.716-15-15-15c-8.28.01-14.99 6.72-15 15zm15 13a12.956 12.956 0 0 1-9.293-3.927A2.976 2.976 0 0 1 18 38c.676.002 1.33.238 1.851.667a1 1 0 0 0 1.534-.351 4.025 4.025 0 0 1 3.25-2.289 9.937 9.937 0 0 1-.547 1.563 1 1 0 1 0 1.824.82 12.1 12.1 0 0 0 .709-2.057 4.053 4.053 0 0 1 1.994 1.963 1 1 0 0 0 1.534.351A2.924 2.924 0 0 1 32 38a2.976 2.976 0 0 1 2.293 1.073A12.956 12.956 0 0 1 25 43zm.723-16.258a4.005 4.005 0 0 1 .973-2.878c.97-.843 2.792-.63 3.54-.5a.129.129 0 0 1 .064.079c.027.754-.015 2.6-.966 3.43s-2.772.626-3.454.513zm-1.785 1.121c-.647.474-2.119 1.405-3.3 1.116a4.451 4.451 0 0 1-2.434-2.6.154.154 0 0 1 .023-.116 5.567 5.567 0 0 1 2.885-1.218c.164 0 .328.019.487.058a4.087 4.087 0 0 1 2.177 2.108zM38 30c0 2.697-.844 5.327-2.415 7.519A4.97 4.97 0 0 0 32 36a4.909 4.909 0 0 0-2.145.5 6.055 6.055 0 0 0-2.9-2.159 14.861 14.861 0 0 0-.421-4.872c.2.014.4.032.616.032a5.272 5.272 0 0 0 3.5-1.118c1.541-1.352 1.7-3.717 1.65-5.012a2.112 2.112 0 0 0-1.726-1.971c-1.268-.224-3.63-.4-5.194.963a4.54 4.54 0 0 0-1.26 1.989 4.479 4.479 0 0 0-2.035-1.186c-1.88-.477-3.787.551-5.055 1.5a2.131 2.131 0 0 0-.633 2.569c.679 1.428 1.884 3.228 3.764 3.692.316.077.64.116.965.116a6.544 6.544 0 0 0 3.433-1.179 13.2 13.2 0 0 1 .4 4.144 6.019 6.019 0 0 0-4.816 2.5A4.909 4.909 0 0 0 18 36a4.97 4.97 0 0 0-3.585 1.519A12.993 12.993 0 1 1 38 30zM8.1 12.943A51.544 51.544 0 0 1 25 10a51.544 51.544 0 0 1 16.9 2.943 1 1 0 0 0 .666-1.886 52.209 52.209 0 0 0-35.126 0 1 1 0 0 0 .666 1.886zM7.437 48.943A52.663 52.663 0 0 0 25 52a52.663 52.663 0 0 0 17.563-3.057 1 1 0 0 0-.666-1.886A51.544 51.544 0 0 1 25 50a51.544 51.544 0 0 1-16.9-2.943 1 1 0 0 0-.666 1.886z" fill="#000000" opacity="1" data-original="#000000"/></g></g></svg>