<svg xmlns="http://www.w3.org/2000/svg" version="1.1" xmlns:xlink="http://www.w3.org/1999/xlink" x="0" y="0" viewBox="0 0 160 160" style="enable-background:new 0 0 512 512" xml:space="preserve"><g><path d="M45.883 118.945a2 2 0 1 0-2.828-2.828L41 118.172v-17.344l15.142-15.142c.491-.491.95-1.005 1.383-1.535.169-.091.331-.199.474-.341l.001.019a2 2 0 0 0 4 0 3.981 3.981 0 0 0-2.052-3.485 19.907 19.907 0 0 0 2.052-8.8V60.828a3.981 3.981 0 0 0-2.052-3.485A19.9 19.9 0 0 0 62 48.544V18a2 2 0 0 0-4 0v15.836A3.977 3.977 0 0 0 55.172 35l-4.79 4.79L41 24.438V18a2 2 0 0 0-4 0v6.438L27.618 39.79 22.828 35A3.98 3.98 0 0 0 20 33.836V18a2 2 0 0 0-4 0V48.544a19.9 19.9 0 0 0 2.052 8.799A3.981 3.981 0 0 0 16 60.828v10.716a19.9 19.9 0 0 0 2.052 8.799A3.981 3.981 0 0 0 16 83.828v10.716c0 5.342 2.08 10.365 5.858 14.142L37 123.828V142a2 2 0 0 0 4 0v-18.172zM58 60.828v10.716c0 4.274-1.664 8.292-4.686 11.314L41 95.172V77.828l15.142-15.142c.482-.482.934-.985 1.36-1.505a1.95 1.95 0 0 0 .498-.353zm0-23v10.716c0 4.274-1.664 8.292-4.686 11.314L41 72.172V54.828zm-19-8.993 8.472 13.864L39 51.172 30.528 42.7zm-2 25.994v17.343L24.686 59.858A15.895 15.895 0 0 1 20 48.544V37.828zm-15.142 7.857L37 77.828v17.344L24.686 82.858A15.895 15.895 0 0 1 20 71.544V60.828c.149.15.32.261.499.354.425.52.877 1.023 1.359 1.504zM20 94.544V83.828c.149.15.32.261.499.354.426.52.878 1.023 1.359 1.504L37 100.828v17.344l-12.314-12.314A15.895 15.895 0 0 1 20 94.544z" fill="currentColor" opacity="1" data-original="#000000"/><path d="M28 32a2 2 0 0 0 2-2V18a2 2 0 0 0-4 0v12a2 2 0 0 0 2 2zM50 32a2 2 0 0 0 2-2V18a2 2 0 0 0-4 0v12a2 2 0 0 0 2 2zM143.914 69.086a2 2 0 0 0-2.828 0l-14.091 14.091A3.982 3.982 0 0 0 124.171 82h-7.075l4.222-17.49 7.596-7.596a2 2 0 1 0-2.828-2.828l-7.596 7.596L101 65.903v-7.075a3.981 3.981 0 0 0-1.177-2.823l14.091-14.091a2 2 0 1 0-2.828-2.828L94.172 56l-7.314 7.314a19.908 19.908 0 0 0-4.771 7.673A3.978 3.978 0 0 0 78.172 72l-7.314 7.314a19.908 19.908 0 0 0-4.771 7.673A3.978 3.978 0 0 0 62.172 88l-7.314 7.314A19.866 19.866 0 0 0 49 109.456v21.716l-4.914 4.914a2 2 0 1 0 2.828 2.828L51.828 134h21.716a19.87 19.87 0 0 0 14.142-5.858L95 120.828a3.98 3.98 0 0 0 1.013-3.916 19.897 19.897 0 0 0 7.673-4.771l7.314-7.314a3.98 3.98 0 0 0 1.013-3.916 19.897 19.897 0 0 0 7.673-4.771L127 88.828l16.914-16.914a2 2 0 0 0 0-2.828zm-27.12-2.88L112.981 82H101V70.018zm-27.108-.064L97 58.828v24.343l-12 12V77.456c0-4.274 1.664-8.292 4.686-11.314zm-16 16L81 74.828v24.343l-12 12V93.456c0-4.274 1.664-8.292 4.686-11.314zM53 109.456c0-4.274 1.664-8.292 4.686-11.314L65 90.828v24.343l-12 12zM92.172 118l-7.314 7.314A15.895 15.895 0 0 1 73.544 130H55.828l3.657-3.657.001-.001L67.828 118zm16-16-7.314 7.314A15.895 15.895 0 0 1 89.544 114H71.828l12-12zm8.686-8.686A15.895 15.895 0 0 1 105.544 98H87.828l12-12h24.344z" fill="currentColor" opacity="1" data-original="#000000"/><path d="M106.586 60.858a1.996 1.996 0 0 0 2.828 0l11.722-11.722a2 2 0 1 0-2.828-2.828L106.586 58.03a2 2 0 0 0 0 2.828zM122.142 76.414c.391.391.902.586 1.414.586s1.024-.195 1.414-.586l11.722-11.722a2 2 0 1 0-2.828-2.828l-11.722 11.722a2 2 0 0 0 0 2.828z" fill="currentColor" opacity="1" data-original="#000000"/></g></svg>